<svg xmlns="http://www.w3.org/2000/svg" width="708" height="497" fill="none"><path fill="#D1D0E9" d="M671.06 151.7 631.34 29.25l-324.61 158.1 24.76 60.46 182.98-52.31.73-24.45-5.37-5.67s-1.22-54.73 46.4-53.62c0 0 43.1-2.49 57.56 38.84l2.65 18.77 54.62-17.67Zm-35.9 237 47.82 11.67 8.46-48.75-39.2.81s4.97 10.55-.23 21.58c0 0-6.27 7.7-16.84 14.69h-.01ZM69.87 301.89 31.99 242.8l92.46-43.96s.32 19.94 20.49 28.84l-1.27 10.56s-22.58 1.74-35.8 11.95c0 0-22.53 9.32-37.99 51.7h-.01Zm395.98 21-19.1 16.89c-5.27 4.66-13.27 4.64-18.4-.18a19.252 19.252 0 0 1-3.9-5.15c-.67-1.28-1.19-2.63-1.57-4.01.68-2.99 3.41-8.91 14.46-10.49 12.09-1.72 12.9-14.64 12.77-19.51 5.69-.52 10.47.09 13.43 1.64 7.85 4.09 8.94 14.94 2.3 20.81h.01Z"/><path stroke="#222831" stroke-linecap="round" stroke-linejoin="round" stroke-width="2" d="M316.91 370.13c3.5.59 6.24-.08 8-.45 4.82-.99 11.55-4.32 12.54-16.44 1.21-14.69-4.34-19.21-4.34-19.21l-6.28 4.47"/><path fill="#222831" d="m116.44 169.49 4.05-2.85 3.8.49 3.47 2.84-.41-5.62-.8-9.5s.18-14.49 6.77-19.47c0 0 16.32 11.79 35.24 10.76 0 0 26.03 1.5 41.7-16.3l4.67-5.98 2.06-7.52-.43-7.35-2.97-6.98-4.49-5.48-8.32-3.18-9.97-.72-12.19 1.92-7.78 3.66-8.38 4.39-15.39 5.98-5.76 1.29 1.68-6.63-.25-4.49-2.55-2.02-3.1 1.32-3.07 2.57-2.07 7.7-2.29-2.96-3.54-2.71-3.82.46-1.6 3.79.48 6.8.71 3.37-2.7 3.83-4.7 9.28-2.21 9.46-.18 8.23.17 8.64 2.97 9.3 1.23 3.67-.03.01Z"/><path stroke="#222831" stroke-linecap="round" stroke-linejoin="round" stroke-width="2" d="m178.26 179 4.85 12.9s1.4 3.93-8.38 5.26"/><path fill="#222831" d="M185.55 168.42c1.22 0 2.2 1.49 2.2 3.33s-.98 3.33-2.2 3.33c-1.22 0-2.2-1.49-2.2-3.33s.98-3.33 2.2-3.33Zm-21.3 0c1.21 0 2.2 1.49 2.2 3.33s-.98 3.33-2.2 3.33c-1.22 0-2.2-1.49-2.2-3.33s.98-3.33 2.2-3.33Z"/><path stroke="#222831" stroke-linecap="round" stroke-linejoin="round" stroke-width="2" d="M166.22 156.4s-2.9.3-9.23 4.16m24.84-5.62s4.43-.54 11.13 2.47M53.02 423.6h227.4m135.67 0H649.1"/><path fill="#7971E7" d="M368.08 361.8c-9.3 3.04-18.88-.77-18.88-.77s5.49-8.74 14.78-11.78c9.3-3.04 18.88.77 18.88.77s-5.49 8.74-14.78 11.78Zm12.42-34.46c-7.36 6.44-17.67 6.69-17.67 6.69s1.62-10.19 8.99-16.63c7.36-6.44 17.67-6.69 17.67-6.69s-1.62 10.19-8.99 16.63Zm-45.15 29.76c8.72 4.42 12.81 13.89 12.81 13.89s-10.06 2.3-18.78-2.13c-8.72-4.42-12.81-13.89-12.81-13.89s10.06-2.3 18.78 2.13Zm13.73-29.84c7.28 6.53 8.78 16.74 8.78 16.74s-10.31-.38-17.59-6.91c-7.28-6.53-8.78-16.74-8.78-16.74s10.31.38 17.59 6.91Z"/><path fill="#D1D0E9" d="M423 474.17c0 7.42-33.5 13.43-74.84 13.43s-74.84-6.02-74.84-13.43c0-3.04 5.63-5.84 15.11-8.1 7.51 7.44 31.4 12.87 59.72 12.87s52.22-5.43 59.72-12.87c9.49 2.26 15.11 5.06 15.11 8.1h.02Z"/><path stroke="#222831" stroke-linecap="round" stroke-linejoin="round" stroke-width="2" d="M348.17 422.31c38.804 0 70.26-9.03 70.26-20.17 0-11.14-31.456-20.17-70.26-20.17-38.803 0-70.26 9.03-70.26 20.17 0 11.14 31.457 20.17 70.26 20.17Z"/><path fill="#222831" d="M407.25 402.14c0 2-7.61.37-12.32 1.99-2.57.88-3.82 8.83-7.47 9.54-2.9.56-7.27-6.26-10.73-5.84-3.03.37-5.54 8.06-8.92 8.32-3.1.23-6.74-7-10.08-6.88-3.15.11-6.26 7.58-9.57 7.58-3.31 0-6.42-7.47-9.57-7.58-3.34-.12-6.98 7.11-10.08 6.88-3.38-.25-5.89-7.94-8.92-8.32-3.46-.42-7.82 6.4-10.73 5.84-3.65-.7-4.91-8.66-7.48-9.54-4.71-1.62-12.31.01-12.31-1.99s7.61-.37 12.32-1.99c2.57-.88 3.82-8.83 7.47-9.54 2.9-.56 7.27 6.26 10.73 5.84 3.03-.37 5.54-8.06 8.92-8.32 3.1-.23 6.74 7 10.08 6.88 3.15-.11 6.26-7.58 9.56-7.58 3.3 0 6.42 7.47 9.57 7.58 3.34.12 6.98-7.11 10.08-6.88 3.38.25 5.89 7.94 8.92 8.32 3.46.42 7.82-6.4 10.73-5.84 3.65.7 4.91 8.66 7.48 9.54 4.71 1.62 12.31-.01 12.31 1.99h.01Z"/><path stroke="#222831" stroke-linecap="round" stroke-linejoin="round" stroke-width="2" d="M285.99 427.29v33.81c0 1.73.85 3.4 2.45 4.98 7.51 7.44 31.4 12.87 59.72 12.87s52.22-5.43 59.72-12.87c1.6-1.58 2.45-3.25 2.45-4.98v-33.81"/><path stroke="#222831" stroke-linecap="round" stroke-linejoin="round" stroke-width="2" d="M418.43 402.14v15.74c0 11.14-31.46 20.17-70.26 20.17-38.8 0-70.26-9.03-70.26-20.17v-15.74"/><path fill="#222831" d="M356.12 297.63s9.58 16.23 3.22 36.92c-1.56 5.08-3.95 9.36-6.77 12.71-4.45 5.3-13.36 20.43-7.48 52.33h9.2s-5.86-7.97-4.81-23.82c.59-8.89 3.23-17.11 7.27-23.19 6.84-10.3 19.78-35.45-.63-54.95Z"/><path fill="#7971E7" d="m509.7 165.32.58-11.53 3.49-12.38 4.3-8.33s10.12-24.3 45.69-20.29c0 0 28.29-1.3 46.14 29.13 0 0 5.06 6.13 5.65 27.3l2.32 10.26 1.35 9.76 2.24 9.11 1.85 9.24 4.02 11.92 2.98 8.95 2.37 6.35-1.85 5.48-9.18 6-10.22 2.77-9.6-.1-6.36-.27s-.5-26.81-1.64-50.15c0 0 9.96-2.55 5.39-11.92 0 0-2.03-6.6-8.01-5.83 0 0 2.93-16.27-9.66-28.34 0 0 4.62 12.3-.14 28.6 0 0-18.51 8.18-38.79 4.13 0 0-18.76-3.89-30.23-17.01l-2.73-2.86.04.01Z"/><path fill="#7971E7" d="M579.75 218.47s2.33 21.48-.92 28.87c0 0-13 3.15-27.67 1.73 0 0-13.43-2.18-16.92-10.44l.2-7.86s33.82-3.2 45.31-12.29v-.01Z"/><path stroke="#222831" stroke-linecap="round" stroke-linejoin="round" stroke-width="2" d="m514.91 171.05-.73 41.19c-.55 17.61 20.71 17.56 20.71 17.56 38.02-1.3 50.43-16.21 50.43-16.21"/><path stroke="#222831" stroke-linecap="round" stroke-linejoin="round" stroke-width="2" d="M580.82 217.64s.93 44.68-11.26 60.34"/><path stroke="#222831" stroke-linecap="round" stroke-linejoin="round" stroke-width="2" d="M569.56 277.98s-4.23 5.52 4.84 7.62c1.76.43 3.62.34 5.34-.23 3.27-1.1 8.78-3.62 10.73-8.48.2-.49.43-.96.65-1.44 1.51-3.25 6.62-18.93 2.45-76.9"/><path stroke="#222831" stroke-linecap="round" stroke-linejoin="round" stroke-width="2" d="M581.91 152.35s3.79 15.96 0 28.82c0 0-42.11 19.23-72.24-16.21 0 0-1.56-49.76 42.78-53.13 0 0 43.56-3.19 59.32 32.99 1.73 3.95 2.82 8.14 3.22 12.43 1.27 12.59 5.85 49.3 18.06 76.6 0 0 3.98 8.69-17.56 14.41 0 0-11.42 2.32-20.24 0"/><path stroke="#222831" stroke-linecap="round" stroke-linejoin="round" stroke-width="2" d="M581.91 152.35s8.56 6.5 9.71 24.76m-4.71 5.92s5.63-5.67 10.7.25c.54.62.99 1.33 1.32 2.08 1.11 2.63 3.89 11.02-4.95 12.94 0 0-3.07.71-6.57-.29"/><path stroke="#222831" stroke-linecap="round" stroke-linejoin="round" stroke-width="2" d="M594.84 191.66s.04-5.18-5.25-5.64"/><path stroke="#222831" stroke-linecap="round" stroke-linejoin="round" stroke-width="2" d="M593.3 188.14s-1.12-.52-3.14 2.71m-11.6 56.96s-25.07 4.21-38.27-2.7c0 0-7.27-4.44-6.3-9.46 0 0 1.36-3.54.45-5.85"/><path fill="#222831" d="M540.11 191.32c-.91-.1-1.81 1.31-2 3.13-.19 1.83.39 3.38 1.3 3.48.91.1 1.81-1.31 2-3.13.19-1.83-.39-3.38-1.3-3.48Zm-13.39-1.69c-.85-.09-1.67 1.15-1.84 2.77-.17 1.62.38 3 1.22 3.09.85.09 1.67-1.15 1.84-2.77.17-1.62-.38-3-1.22-3.09Z"/><path stroke="#222831" stroke-linecap="round" stroke-linejoin="round" stroke-width="2" d="M530.77 200.14s-1.46 3.95-1.87 5.05c-.11.31-.17.64-.17.97.01 1.07.43 2.93 3.51 2.13"/><path fill="#222831" stroke="#222831" stroke-linecap="round" stroke-linejoin="round" stroke-width="2" d="M585.32 213.68s-.33 5.04-4.49 9.86l-.14-5.47 4.63-4.39Z"/><path stroke="#222831" stroke-linecap="round" stroke-linejoin="round" stroke-width="2" d="M527.66 217.89s8.91 4.95 20.59-1.43m44.27 57.06c15.87 1.86 32.77 12.8 38.83 27.58l19.45 47.43c1.43 3.49 2.51 7.13 3.12 10.86 1.13 6.87.69 13.33-5.6 19.01-.45.4-.92.77-1.4 1.13-2.82 2.12-18.16 13.38-31.44 27.14"/><path stroke="#222831" stroke-linecap="round" stroke-linejoin="round" stroke-width="2" d="m611.62 408.44 12.29-3.67c2.96-.88 5.7 2.01 4.58 4.89-2.05 5.26-7.3 9-13.4 8.73-3.85-.17-8.07-1.53-10.53-5.97-5.4-9.72 3.53-18.16 3.53-18.16l15.96-17.49c11.59-12.02 5.9-20.98 5.9-20.98l-17.6-33.87c-.59-1.28-.8-1.46-.99-.06-1.53 11.43-5.39 43.17-6.36 76.5m-103.74-33.6 26.24-67.92c3.78-9.78 11.28-17.8 20.98-21.77 4.12-1.68 8.94-2.84 14.48-2.91h10.02"/><path stroke="#222831" stroke-linecap="round" stroke-linejoin="round" stroke-width="2" d="M524.96 422.95s13.89-53.57 19.75-102.06l-25.24 63.73s-3.73 11.45-16.82 8.89c-5.32-1.04-10.04-4.06-13.44-8.28l-39.19-47.47"/><path stroke="#222831" stroke-linecap="round" stroke-linejoin="round" stroke-width="2" d="M468.57 319.95s18.59 28.39 35.08 38.6"/><path stroke="#222831" stroke-linecap="round" stroke-linejoin="round" stroke-width="2.49" d="m604.73 422.94-.16-9.98"/><path stroke="#222831" stroke-linecap="round" stroke-linejoin="round" stroke-width="2" d="M433.91 304.39c5.71-2.24 11.3-3.51 16.21-3.95 5.69-.52 10.47.09 13.43 1.64 7.85 4.09 8.94 14.94 2.3 20.81l-19.1 16.89c-5.27 4.66-13.27 4.64-18.4-.18a19.252 19.252 0 0 1-3.9-5.15c-.67-1.28-1.19-2.63-1.57-4.01-.64-2.36-.85-4.83-.67-7.29l.84-11.3-13.62-13.17-2.28 20.43c-.13 1.16-1.73 1.34-2.12.25l-7-19.79-13.02 5.18-3.93-8.27 20.21-9.38s18.06-8.56 19.98-13c0 0 3.55 9.18-4.29 13.92l5.78 5.48"/><path stroke="#222831" stroke-linecap="round" stroke-linejoin="round" stroke-width="2" d="m416.99 288.02 10.55-3.39s.5-.19 1.38-.42c8.37-2.23 11.83-1.58 17.82 4.67l8.78 11.42"/><path stroke="#222831" stroke-linecap="round" stroke-linejoin="round" stroke-width="2" d="m424.67 289.8-2.96 8.59s-3.14 7.67 3.93 8.87c7.07 1.2 11.04-6.47 11.04-6.47.26-.56.47-1.14.62-1.74l1.96-7.78m-30.36 12.2c1.16 4.25 1.89 6.9 3.37 10 1.57 3.3 5.26 5.17 8.8 4.25a5.44 5.44 0 0 0 1.6-.68m-23.81-15.15-4.04 7.6c-1.46 3.46.54 5.69.54 5.69s3 3.77 8.21 0"/><path fill="#D1D0E9" d="M372.29 301.08c-1.78-.3-3.14-1.05-3.04-1.68.11-.63 1.64-.89 3.42-.59 1.78.3 3.14 1.05 3.04 1.68-.1.63-1.64.89-3.42.59Zm7.23 7.55c-.74 1.65-1.8 2.78-2.38 2.52-.58-.26-.45-1.81.29-3.46s1.8-2.78 2.38-2.52c.58.26.45 1.81-.29 3.46Zm-5.82-1.38c-1.41 1.14-2.87 1.66-3.27 1.16-.4-.49.42-1.81 1.82-2.95 1.41-1.14 2.87-1.66 3.27-1.16.4.5-.42 1.81-1.82 2.95Z"/><path stroke="#222831" stroke-linecap="round" stroke-linejoin="round" stroke-width="2.66" d="M131.49 108.95s-4.05-9-8.66-5.2c0 0-4.18 3.91.13 14.02l1.71 3.57m3.53 10.48c2.29 1.76 4.59 3.53 7.06 5.03 5.57 3.39 12.56 6.46 18.89 7.86 22.01 4.88 47.05-.86 59.61-19.12 6.57-9.54 2.59-25.53-6.99-29.66-12.25-5.27-24.98-3.3-36.86 2.99 0 0-14.2 8.5-27.55 11.01"/><path stroke="#222831" stroke-linecap="round" stroke-linejoin="round" stroke-width="2.66" d="M139.59 115.61s9.21-19.37-.42-18.23c0 0-7.31.55-7.67 18.13m-9.79 1.86s-9.35 11.69-9.63 32.54c0 0-1.23 2.51 4.72 20.67m16.22-35.24s-9.93 14.72-5.6 38.55"/><path stroke="#222831" stroke-linecap="round" stroke-linejoin="round" stroke-width="2.2" d="M127.38 173.84s.79-7.98-6.29-7.18c0 0-5.89.81-4.58 12.05 0 0 1.45 10.41 9.73 10.37 0 0 3.8-.11 3.68-4.18"/><path stroke="#222831" stroke-linecap="round" stroke-linejoin="round" stroke-width="2.2" d="M120.5 179.48s-.62-3.41 3.15-4.2"/><path stroke="#222831" stroke-linecap="round" stroke-linejoin="round" stroke-width="2.2" d="M125.39 181.14s-1.1-3.29-3.95-4.72"/><path stroke="#222831" stroke-linecap="round" stroke-linejoin="round" stroke-width="2.66" d="M205.72 128.91s-6.44 31.94 1.77 54.58l.74-2.07a61.556 61.556 0 0 0 3.24-27.44c-.96-8.82-2.7-19.29-5.75-25.06v-.01Z"/><path fill="#222831" d="M205.72 128.91s-6.44 31.94 1.77 54.58l1.59-4.44a50.228 50.228 0 0 0 2.74-21.6c-.87-9.37-2.64-21.98-6.1-28.54Z"/><path stroke="#222831" stroke-linecap="round" stroke-linejoin="round" stroke-width="2" d="M124.68 189.37s-4.35 31.11 24.11 39.24c28.46 8.13 44.16-6.28 44.16-6.28s14.61-11.31 14.61-42.78"/><path stroke="#222831" stroke-linecap="round" stroke-linejoin="round" stroke-width="2" d="M161.16 204.65c3.6 1.23 9.43 2.61 17.33 2.52 12.27-.13 10.75-7.18 10.75-7.18"/><path stroke="#222831" stroke-linecap="round" stroke-linejoin="round" stroke-width="2" d="M165.54 206.06c-4.09 10.28 6.81 10.62 6.81 10.62s4.89.37 9.1-.58c3.14-.71 5.55-3.23 6-6.42.16-1.17.18-2.49-.11-3.85m-43.68 20.92v14.88c0 1.51.61 2.98 1.73 4 2.45 2.23 8.12 5.29 20.62 4.93 12.02-.35 17.49-3.22 19.91-5.35a5.413 5.413 0 0 0 1.81-4.13l-.17-15.16M114.45 423.6c-6.23-80.09 9.99-129.63 9.99-129.63C109.77 312.4 105.55 337 105.55 337c-26.85 4.31-42.81-11.15-42.81-11.15s-.25-13.17 19.51-49.14 61.41-38.47 61.41-38.47"/><path stroke="#222831" stroke-linecap="round" stroke-linejoin="round" stroke-width="2" d="M105.65 336.91c3.74-.05 6.7 2.74 6.45 6.11-.09 1.15-.3 2.39-.72 3.63-.82 2.43-3.54 4.4-6.36 4.78-9.19 1.24-31.37 2.19-48.22-8.47-2.37-1.5-4.17-3.82-4.85-6.54-.45-1.82-.5-4.04.46-6.52 2.68-6.96 10.35-4.04 10.35-4.04m194.56-41.07c1.81-3.27 5.48-4.5 8-2.69.86.62 1.73 1.39 2.5 2.35 1.5 1.86 1.7 5.16.61 7.78-3.58 8.55-14.42 25.72-31.15 35.27-2.36 1.35-5.07 1.81-7.55 1.11-1.66-.47-2.89-.82-4.37-2.83-4.14-5.62 1.92-10.14 1.92-10.14"/><path stroke="#222831" stroke-linecap="round" stroke-linejoin="round" stroke-width="2" d="M62.44 346.04s-6.18 42.44 12.74 77.57m25.04-70.84s-5.58 36.42 4.06 70.83"/><path fill="#222831" d="M113.67 411.61s6.74-2.74 48.92 2.47c42.17 5.21 56.23-5.89 56.23-5.89l1.59 15.41H114.46l-.78-11.99h-.01Z"/><path stroke="#222831" stroke-linecap="round" stroke-linejoin="round" stroke-width="2" d="M220.4 423.6c-3.05-58.38-19.24-131.94-19.24-131.94s10.15 13.69 25.62 23.92m30.54-31.02c-26.52-40.84-69.58-47.42-69.58-47.42m39.04 78.44s20.02-7.65 30.54-30.79m-20.05 42.71s24.81 32.68 79.64 42.63m-52.03-70.94s21.57 24.23 51.7 38.84m-.54 3.65 3.66-10.78c.87-1.59 3.1-1.82 4.21-.39 1.8 2.3 3.68 6.21 2.62 11.92"/><path fill="#222831" d="M143.74 235.6s24.78 5.59 43.9-8.76c0 0-20.23 10.27-43.9-.63v9.39Z"/><path stroke="#222831" stroke-linecap="round" stroke-linejoin="round" stroke-width="2" d="M31.98 273.57c16.988 0 30.76-13.772 30.76-30.76s-13.772-30.76-30.76-30.76-30.76 13.772-30.76 30.76 13.772 30.76 30.76 30.76Zm438.162-150.971c9.756-4.041 14.388-15.226 10.347-24.982-4.041-9.756-15.225-14.389-24.981-10.348-9.756 4.041-14.389 15.226-10.348 24.982 4.041 9.756 15.226 14.389 24.982 10.348ZM667.33 379.61l36.08 15.96 3.37-34.88-39.45 18.92ZM338.2 74.78l-39.72-73.4-57.33 38.68 97.05 34.72ZM255 174.27c-5.12-2.13-6.85-13.06.08-15.88 6.5-2.65 8.61 1.91 10.59 2.21.59.09.2-1.43.28-1.96.18-1.19.25-5.35.83-6.39 1.65-2.98 2.35-3.89 5.98-4.9 2.39-.66 7.3 1.06 9.28 2.32.74.47 2.8 1.37 2.92.59.71-4.75.19-8.65 6.49-11.21 2.78-1.13 10.03-.74 12.25 4.39"/><path fill="#D1D0E9" d="m562.95 477.31 3.52-3.35s3.05 1.35 7.71-.54c0 0 2.86-1.16 2.3-6.43 0 0-.56 5.02-9.22 4.59l-2.18-.9-5.56 5.8 1.37 2.51 2.05-1.68h.01Z"/><path fill="#D1D0E9" d="M573.19 480.02v-1.83l-12.49.44s-.05.22-.2.58l-.11-2.28s-8.47-3.19-12.69 0c0 0-3.81 1.31-6.17 3.71 0 0 0 1.5.39 2.39.31.7 1.18.83 1.69.29.86-.9 2.68-2.81 5.18-4 1.45-.69 3.04-.96 4.62-.86 1.62.1 4.12.45 6.71 1.48-1.2 2.09-4.72 5.88-14.33 5.38l.94.24c-5.13-.03-5.8-.08-5.8 1.1 0 1.35 1.52 2.7 8.92 2.7s14.06-5.05 14.06-6.4v-.02c.08-.22.14-.46.15-.72h5.66s.51 5.49 9.2 5.38h.09c3.98.16 7.41-2.8 7.89-6.76l.24-1.98s-6.44 8.53-13.95 1.15v.01Z"/><path stroke="#222831" stroke-linecap="round" stroke-linejoin="round" stroke-width="2" d="M569.24 471.58c3.673 0 6.65-1.831 6.65-4.09s-2.977-4.09-6.65-4.09c-3.673 0-6.65 1.831-6.65 4.09s2.977 4.09 6.65 4.09Zm10.6 11.38c3.673 0 6.65-1.831 6.65-4.09s-2.977-4.09-6.65-4.09c-3.673 0-6.65 1.831-6.65 4.09s2.977 4.09 6.65 4.09Z"/><path stroke="#222831" stroke-linecap="round" stroke-linejoin="round" stroke-width="2" d="m565.35 470.8-5.83 5.93s1.55.76 1.18 1.9l11.83-.47m-30.35 2.31s5.41-6.86 17.34-3.74m-13.72 8.78s12.24 1.18 14.88-6.64"/><path fill="#D1D0E9" d="M184.17 478.38c2.2-2.37 4.1-5.17 4.33-7.91a.43.43 0 0 0-.17-.38c-2.16-1.7-5.5-2.23-8.74-2.24-4.63-.02-9.31 1.03-13.67 2.92l-16.59 7.2c-.41.18-.47.68-.11.87l4.9 2.61c.36.19.29.69-.11.87l-21.12 9.16c-1.53.66-2.3 2.29-1.72 3.64.58 1.35 2.3 1.89 3.83 1.23l21.12-9.16c.41-.18.82.12.71.51l-1.45 5.36c-.11.39.31.69.71.51l16.59-7.2c4.35-1.89 8.32-4.59 11.47-7.99h.02ZM134.06 494c-.24-.56.24-1.31 1.09-1.67.84-.37 1.72-.21 1.96.35.24.56-.24 1.31-1.09 1.67-.85.37-1.73.21-1.97-.35h.01Z"/><path fill="#222831" d="M183.52 475.22c2.2-2.37 4.1-5.17 4.33-7.91a.43.43 0 0 0-.17-.38c-2.16-1.7-5.5-2.23-8.74-2.24-4.63-.02-9.31 1.03-13.67 2.92l-16.59 7.2c-.41.18-.47.68-.11.87l4.9 2.61c.36.19.29.69-.11.87l-21.12 9.16c-1.53.66-2.3 2.29-1.72 3.64.58 1.35 2.3 1.89 3.83 1.23l21.12-9.16c.41-.18.82.12.71.51l-1.44 5.36c-.11.39.31.69.71.51l16.59-7.2c4.35-1.89 8.32-4.59 11.47-7.99h.01Zm-50.11 15.62c-.24-.56.24-1.31 1.09-1.67.84-.37 1.72-.21 1.96.35.24.56-.24 1.31-1.09 1.67-.85.37-1.73.21-1.97-.35h.01Z"/></svg>