<svg xmlns="http://www.w3.org/2000/svg" id="Layer_2" viewBox="0 0 678.83 547.85"><defs><style>.cls-1,.cls-4{stroke-linecap:round;stroke-linejoin:round;stroke-width:2px;stroke:#222831}.cls-1{fill:none}.cls-5{fill:#d4d3eb}.cls-5,.cls-6,.cls-7,.cls-8,.cls-9{stroke-width:0}.cls-9{fill:#222831}.cls-6{fill:#7971ea}.cls-7{fill:#e0dfeb}.cls-4,.cls-8{fill:#ededed}</style></defs><g id="DUO-Illustrations"><path d="M158.36 352.66s9.7 66.1 63.11 82.71l-4.86 15.23s-23.54-8.44-41.76-33.09c0 0-21.36-30.74-16.49-64.85Z" class="cls-7"/><path d="M124.06 307.4s-30.81 111.2 77.59 148.3c0 0-3.85 8.18-3.69 14.58l-35.74-15.76-18.87-12.88-13.27-15.63-8.21-16.37-5.94-20.8-4.01-24.63-.98-27.16 3.11-15.01 7.85-12.81 2.17-1.83Z" class="cls-7"/><path d="m199.24 314.47.07.13-.08.25c.01-.12.01-.25.01-.38Zm-30.92-37.01L44.68 311.85l73.18 84.78c-2.22-8.05-8.99-35.99-5.59-66.35 0 0 1.67-25.81 32.11-33.52 0 0 17.95-3.12 26.07 3.38l-2.13-22.68Zm130.23-34.44-14.67 85.54h-10.23l-6.38-9.7-11.36-10.71s-8.63-4.91-26.43-9.17c-16.02-3.83-33.94-1.36-37.36-.83-2.04-6.4-4.53-15.47-5.75-24.71l112.18-30.42Zm220.3-144.97 55.69-61.55 104.29-.75-63.47 62.3h-96.51zm152.99 63.92-19.44 47.08-44.02-35.39 63.46-11.69z" class="cls-5"/><path d="m311.09 267.69-2.32 31.06-32.33-12.18 34.65-18.88z" class="cls-4"/><path d="m602.81 423.27-125.17 6.98 23.84-77.59 121.76 23.96-20.43 46.65zM92.98 536.78c0 5.57-16 10.08-35.73 10.08s-35.73-4.51-35.73-10.08c0-3.23 5.38-6.1 13.74-7.94 5.09 3.69 11.63 5.91 18.76 5.91h6.46c7.13 0 13.67-2.22 18.76-5.91 8.36 1.84 13.74 4.71 13.74 7.94Z" class="cls-5"/><path d="M29.76 485.92h-.02v27.89c0 6.72 3.5 12.73 8.98 16.72 4.29 3.11 9.8 4.98 15.81 4.98h5.44c6.01 0 11.52-1.87 15.81-4.98 5.49-3.99 8.98-9.99 8.98-16.72v-27.89h-.02" class="cls-1"/><path d="M84.76 485.71c0 3.71-12.32 6.72-27.51 6.72s-27.51-3.01-27.51-6.72 12.32-6.72 27.51-6.72 27.51 3.01 27.51 6.72Z" class="cls-1"/><path d="m200.62 497.21 16.43 12.48 271.78 1.05-34.03-14.05-254.18.52Z" class="cls-5"/><path d="m204.08 492.24 49.27-163.68h255.54l-50.3 163.68H204.08z" class="cls-1"/><path d="M344.97 395.29s-.11 9.39 15.35 10.37c15.46.98 16.94 1.85 17.15 13.65 0 0-2.88 4.87-8.32 8.04-3.16 1.84-7.06 2.45-12.09 2.9 0 0-4.12-.54-8.31-3.2-6.89-4.35-14.31-13.53-6.43-28.93l2.66-2.83Z" class="cls-6"/><ellipse cx="358.95" cy="410.41" class="cls-1" rx="20.54" ry="19.81" transform="rotate(-84.19 358.933 410.406)"/><path d="M47.53 463.76c7.85 13.12 11.35 25.48 7.81 27.6s-12.78-6.8-20.64-19.92c-7.85-13.12-11.35-25.48-7.81-27.6 3.54-2.12 12.78 6.8 20.64 19.92Z" class="cls-6"/><path d="M26.68 454.05s2.98-11.81 14.46 1.09c0 0-9.27-14.25-14.25-11.3 0 0-2.87 1.24-.21 10.21Z" class="cls-8"/><path d="M47.53 463.76c7.85 13.12 11.35 25.48 7.81 27.6s-12.78-6.8-20.64-19.92c-7.85-13.12-11.35-25.48-7.81-27.6 3.54-2.12 12.78 6.8 20.64 19.92Z" class="cls-1"/><path d="M76.79 460.38c-5.17 18.85-13.91 32.6-19.67 31.02-5.76-1.58-6.37-17.9-1.2-36.75s14.04-32.84 19.8-31.26c5.76 1.58 6.25 18.14 1.08 36.99Z" class="cls-6"/><path d="M67.85 428.15s15.01-2.69 8.31 34.42c0 0 10.42-35.26-.45-39.18 0 0-4.09-1.01-7.86 4.76Z" class="cls-8"/><ellipse cx="66.35" cy="457.51" class="cls-1" rx="35.38" ry="10.82" transform="rotate(-74.66 66.343 457.501)"/><path d="M63.8 463.58v.24c-.03 16.06-3.08 27.91-7.86 28.33-5.96.52-12.34-16.94-14.25-38.99-1.1-12.62-.49-24.02 1.34-31.55 1.37-5.62 3.42-9.09 5.97-9.31 5.96-.52 12.34 16.93 14.25 38.99.37 4.27.55 8.4.55 12.29Z" class="cls-6"/><path d="M63.8 463.58v.23c-4.25-34.15-14.44-41.26-20.77-42.2 1.37-5.62 3.42-9.09 5.97-9.31 5.96-.52 12.34 16.93 14.25 38.99.37 4.27.55 8.4.55 12.29Z" class="cls-8"/><path d="M63.25 451.28c1.92 22.05-1.36 40.35-7.32 40.86-5.96.52-12.34-16.94-14.25-38.99-1.92-22.05 1.36-40.35 7.31-40.86 5.96-.52 12.34 16.94 14.25 38.99Z" class="cls-1"/><path d="M66.11 491.84s7.38-10.71 13.62-13.39c2.74-1.18 5.81.83 6.01 3.8.17 2.53 1.08 5.97 4.89 5.28 0 0 8.03-1.29 4.87-13.82 0 0-3.45-15.48-10.54-12.17 0 0-13.7 4.5-24.34 30.37l5.49-.07Z" class="cls-6"/><path d="M82.81 462.57s8.09-.15 8.6 13.73c.14 3.93-4.75 5.87-7.29 2.88l-.15-.18s2.4.81 2.27 5.92c-.12 5.11 7.95 1.4 7.95 1.4s5.29-8.29-.74-18.71c-6.03-10.42-10.64-5.04-10.64-5.04Z" class="cls-8"/><path d="M66.11 491.84s7.38-10.71 13.62-13.39c2.74-1.18 5.81.83 6.01 3.8.17 2.53 1.08 5.97 4.89 5.28 0 0 8.03-1.29 4.87-13.82 0 0-3.45-15.48-10.54-12.17 0 0-13.56 4.5-24.19 30.37l5.35-.07Z" class="cls-1"/><path d="M578.61 537.77c0 5.57-15.55 10.08-34.73 10.08s-34.73-4.51-34.73-10.08c0-3.23 5.23-6.1 13.36-7.94 4.95 3.69 11.3 5.91 18.23 5.91h6.28c6.93 0 13.29-2.22 18.23-5.91 8.13 1.84 13.36 4.71 13.36 7.94Z" class="cls-5"/><path d="M523.18 529.83h-.11" class="cls-1"/><path d="M532.7 503.11c0 8.41-5.25 15.12-13.66 15.12h-.27c-2.67-8.46-4.36-17.16-4.65-25.74 1.32-.17 2.74-.24 4.23-.24 8.41 0 14.35 2.45 14.35 10.87Zm37.47 12.82c-1.58 4.72-3.44 9.38-5.43 13.9h-.11s-3.91 5.38-20.09 5.42h-.05c-.41-1.7-.61-3.53-.61-5.42 0-9.55 5.02-19.38 14.58-19.38 4.5 0 8.62 2.18 11.71 5.48Z" class="cls-9"/><path d="M574.52 472.44h.02l.06.31c1.2 5.61 1.5 11.43 1.1 17.31-.1 1.56-.26 3.12-.46 4.68-.89 7.07-2.7 14.2-5.07 21.19-1.58 4.72-3.44 9.38-5.43 13.9h-.11s-3.91 5.38-20.09 5.42h-.05c-16.12.03-21.42-5.42-21.42-5.42-1.61-3.79-3.06-7.68-4.3-11.61-2.67-8.46-4.36-17.16-4.65-25.74-.22-6.68.41-13.27 2.12-19.63 0 0 0 0 0 0" class="cls-1"/><path d="M574.54 472.62c0 3.51-13.06 6.35-29.17 6.35s-29.17-2.84-29.17-6.35 13.06-6.35 29.17-6.35 29.17 2.84 29.17 6.35Z" class="cls-1"/><path d="M575.7 490.06c-.1 1.56-.26 3.12-.46 4.68-2.07 2.13-4.64 3.53-7.44 3.53-6.82 0-11.6-8.38-11.6-15.21 0-1.63.45-4.56 1.96-4.79 3.49-.53 6.98-1.11 10.4-2.03 2.4-.65 4.55-1.74 5.97-3.53.03.01.05.02.07.04 1.2 5.61 1.5 11.43 1.1 17.31Z" class="cls-9"/><path d="M571.71 512.27c4.9.45 12.92-.33 13.69-10.08 1.12-14.27-13.31-12.13-13.31-12.13" class="cls-1"/><path d="M559.92 518.73s29.78 7.79 31.79-15.63c2.03-23.67-24.23-20.11-24.23-20.11" class="cls-1"/><path d="m0 134.25 76.03 51.26 30.8-96.92L0 134.25z" class="cls-5"/><circle cx="40.65" cy="173.73" r="18.63" class="cls-1" transform="rotate(-35.79 40.654 173.724)"/><circle cx="626.55" cy="38.96" r="14.16" style="stroke:#ededed;fill:none;stroke-linecap:round;stroke-linejoin:round;stroke-width:2px"/><circle cx="210" cy="84.5" r="70.03" class="cls-4"/><path d="M277.47 82.49h89.19c4.89 0 8.86-3.96 8.86-8.86V54.26c0-4.89-3.96-8.86-8.86-8.86H215.88c-4.89 0-8.86 3.96-8.86 8.86v19.37c0 4.89 3.96 8.86 8.86 8.86h61.59" class="cls-4"/><path d="M254.01 55.59c5.8-.95 10.75 3.99 9.79 9.79-.58 3.51-3.41 6.35-6.92 6.92a8.483 8.483 0 0 1-9.79-9.79c.58-3.51 3.41-6.35 6.92-6.92Zm71.4 0c5.8-.95 10.75 3.99 9.79 9.79-.58 3.51-3.41 6.35-6.92 6.92a8.483 8.483 0 0 1-9.79-9.79c.58-3.51 3.41-6.35 6.92-6.92Zm-35.7 0c5.8-.95 10.75 3.99 9.79 9.79-.58 3.51-3.41 6.35-6.92 6.92a8.483 8.483 0 0 1-9.79-9.79c.58-3.51 3.41-6.35 6.92-6.92Z" class="cls-6"/><path d="M214.88 75.44h152.77c1.28 0 2.32 1.04 2.32 2.32 0 1.28-1.04 2.32-2.32 2.32H214.88c-1.28 0-2.32-1.04-2.32-2.32 0-1.28 1.04-2.32 2.32-2.32Z" class="cls-7"/><path d="M534.04 307.2h89.19c4.89 0 8.86-3.96 8.86-8.86v-19.37c0-4.89-3.96-8.86-8.86-8.86H472.45c-4.89 0-8.86 3.96-8.86 8.86v19.37c0 4.89 3.96 8.86 8.86 8.86h61.59" class="cls-1"/><path d="M510.58 280.3c5.8-.95 10.75 3.99 9.79 9.79-.58 3.51-3.41 6.35-6.92 6.92a8.483 8.483 0 0 1-9.79-9.79c.58-3.51 3.41-6.35 6.92-6.92Zm71.41 0c5.8-.95 10.75 3.99 9.79 9.79-.58 3.51-3.41 6.35-6.92 6.92a8.483 8.483 0 0 1-9.79-9.79c.58-3.51 3.41-6.35 6.92-6.92Zm-35.7 0c5.8-.95 10.75 3.99 9.79 9.79-.58 3.51-3.41 6.35-6.92 6.92a8.483 8.483 0 0 1-9.79-9.79c.58-3.51 3.41-6.35 6.92-6.92Z" class="cls-6"/><path d="M471.46 300.15h152.77c1.28 0 2.32 1.04 2.32 2.32 0 1.28-1.04 2.32-2.32 2.32H471.46c-1.28 0-2.32-1.04-2.32-2.32 0-1.28 1.04-2.32 2.32-2.32Z" class="cls-7"/><circle cx="632.09" cy="302.47" r="14.94" class="cls-4"/><path d="m165.61 461.56 36.37 35.12 2.09-4.82-37.97-35.41-.49 5.11z" class="cls-4"/><path d="m201.98 496.68 252.51-.78 4.1-3.66H204.08l-2.1 4.44z" class="cls-4"/><path d="M403.97 212.03v-96.98c0-9.39 7.37-17 16.46-17h194.92c9.09 0 16.46 7.61 16.46 17v117.29c0 9.39-7.37 17-16.46 17H439.28l-27.66 18.69c-3.15 2.46-7.67.14-7.67-3.94v-52.07" class="cls-1"/><path d="M526.66 67.36s-30.47-5.78-49.84 10.16c-18.38 15.13-17.95 38.54-17.77 46.09.08 3.39 0 6.77-.31 10.15-.89 9.65-3.52 26.41-11.2 36.15-2.26 2.86-4.29 5.89-5.85 9.19-6.02 12.76-16.33 42.49-1.41 69.62l162.44-.28s10.33-21.11-15.39-60.17c0 0-9.76-14.29-7.38-39.3 5.92 0 11.07-4.07 12.4-9.83 3.16-13.67 5.82-38.62-10.73-55.27-23.82-23.97-54.95-16.5-54.95-16.5Z" class="cls-9"/><path d="M505.64 204.74v33.13c0 2.84 6.8 5.15 15.18 5.15s15.18-2.31 15.18-5.15v-33.13h-30.36Z" class="cls-4"/><path d="M481.99 149.74c-1.87 7.26-1.05 16.38-1.05 16.38s-5.38-8.19-7.02 2.34c-1.64 10.53 5.15 13.81 5.15 13.81s-.72 12.43 12.87 25.04c0 0 10.56 9.67 27.82 10.16 17.26-.49 27.82-10.16 27.82-10.16 13.59-12.61 12.87-25.04 12.87-25.04s6.79-3.28 5.15-13.81c-1.64-10.53-7.02-2.34-7.02-2.34s.82-9.13-1.05-16.38c0 0-4.61-28-38.89-28s-36.63 28-36.63 28Z" class="cls-4"/><path d="M548.5 106.33s-11.97 47.16-83.63 45.97c0 0 17.9-61.92 83.63-45.97Z" class="cls-9"/><path d="M517.96 204.12h-.4s-2.29-.08-4.85-.73c-.08-.29-.12-.6-.12-.92 0-1.95 1.45-3.52 3.24-3.52 1.01 0 1.91.5 2.5 1.28.59-.78 1.49-1.28 2.49-1.28 1.79 0 3.24 1.57 3.24 3.52 0 .24-.02.48-.07.71-2.07.63-4.08.84-5.28.91l-.75.02Z" class="cls-6"/><path d="M519.68 112.05s11.19 43.11 56.92 44.77c0 0 .95-44.06-56.92-44.77Z" class="cls-9"/><path d="M495.2 156.75s2.1-3.2 6.57-2.65m41.85 2.65s-2.1-3.2-6.57-2.65m-41.18 14.62s6.01-10.15 15.76-.62m16.24.62s6.01-10.15 15.76-.62" class="cls-4"/><path d="m519.15 171.84-2.22 11.17s-1.99 4.48 7.96 3.08m-25.53 8.25c6.67 1.3 13.05 1.56 16.67 1.59 2.12.01 4.23-.18 6.31-.59 4.39-.87 12.13-2.89 15.99-6.77" class="cls-1"/><path d="M505.9 196.43c-.67 4.18 3.32 6.1 6.81 6.97 2.56.65 4.85.73 4.85.73h.4c.19 0 .44 0 .75-.02 1.2-.07 3.21-.28 5.28-.91 2.65-.8 5.41-2.28 6.72-5.01 1.08-2.24 2.03-4.42 2.63-5.87" class="cls-1"/><path d="M477.77 170s2.42 1.92 2.29 5.52" class="cls-4"/><path d="M477.52 173.54s1.09-1.7 1.86-1.38m81.54-2.9s-1.92 2.43-.96 5.9" class="cls-4"/><path d="M561.97 172.65s-1.45-1.4-2.13-.91" class="cls-4"/><path d="M618.99 141.25c-3.81-1.58-3.95-11.08 1.22-13.18 4.84-1.97 5.25 2.78 6.73 3 .44.07-.11-.81-.05-1.2.13-.89.03-2.34.46-3.12 1.23-2.22 4.09-4.22 6.79-4.96 1.78-.49 3.51.2 4.98 1.14.55.35 1.55 1.62 1.64 1.04.53-3.54.68-7.05 5.37-8.96 2.07-.84 9.53.76 9.11 3.55M216.61 450.61c-68.63-30.23-58.25-97.94-58.25-97.94" class="cls-1"/><path d="M198.58 470.5s-1.59-15.24 10.87-23.33" class="cls-1"/><path d="M209.45 474.4s-25.4-8.33-49.46-21.05c-19.91-10.53-34.47-28.95-40.34-50.69 0 0-11.03-32.82-8.27-69 2.14-28.04 32.48-45.62 58.28-34.42m22.77-1.33s60.83-10.24 81.22 30.65" class="cls-1"/><path d="m268.39 179.67-.68-13.53-4.1-14.52-5.05-9.78s-11.88-28.51-53.61-23.81c0 0-33.2-1.52-54.14 34.18 0 0-5.93 7.2-6.63 32.03l-2.73 12.03-1.59 11.45-2.63 10.69-2.17 10.84-4.71 13.99-3.5 10.51-2.79 7.45 2.17 6.43 10.77 7.04 11.99 3.25 11.26-.12 7.47-.31s.59-31.46 1.92-58.84c0 0-11.68-3-6.33-13.99 0 0 2.38-7.75 9.4-6.83 0 0-3.43-19.08 11.33-33.26 0 0-5.42 14.43.16 33.56 0 0 21.71 9.6 45.51 4.84 0 0 22.01-4.57 35.47-19.96l3.2-3.35Z" class="cls-6"/><path d="M186.2 242.04s-2.74 25.2 1.08 33.87c0 0 15.25 3.69 32.46 2.02 0 0 15.76-2.56 19.85-12.25l-.24-9.22s-39.68-3.75-53.16-14.42Z" class="cls-6"/><path d="M179.66 236.31s14.56 17.49 59.17 19.02c0 0 24.95.05 24.3-20.6l-.86-48.33" class="cls-1"/><path d="M184.94 241.06s-1.09 52.42 13.21 70.79" class="cls-1"/><path d="M198.15 311.85s4.97 6.48-5.67 8.94c-2.07.5-4.25.4-6.27-.27-3.83-1.29-10.3-4.24-12.59-9.95-.23-.57-.5-1.12-.76-1.68-1.77-3.81-7.77-22.21-2.87-90.23" class="cls-1"/><path d="M183.66 164.46s-4.44 18.73 0 33.81c0 0 49.41 22.56 84.76-19.02 0 0 1.83-58.38-50.19-62.34 0 0-51.11-3.74-69.6 38.71a47.246 47.246 0 0 0-3.78 14.59c-1.5 14.77-6.86 57.85-21.19 89.87 0 0-4.67 10.2 20.6 16.91 0 0 13.4 2.72 23.75 0" class="cls-1"/><path d="M183.66 164.46s-10.04 7.63-11.4 29.06m5.54 6.94s-6.61-6.66-12.55.29c-.63.73-1.16 1.56-1.55 2.44-1.3 3.09-4.56 12.93 5.81 15.18 0 0 3.6.84 7.71-.34" class="cls-1"/><path d="M168.49 210.58s-.04-6.08 6.15-6.62" class="cls-1"/><path d="M170.3 206.45s1.32-.61 3.69 3.19m13.59 66.82s29.41 4.94 44.91-3.17c0 0 8.53-5.21 7.4-11.09 0 0-1.59-4.15-.53-6.87" class="cls-1"/><path d="M232.7 210.18c1.07-.11 2.12 1.53 2.35 3.67.23 2.14-.46 3.97-1.53 4.08-1.07.11-2.12-1.53-2.35-3.67-.23-2.14.46-3.97 1.53-4.08Zm15.71-1.98c.99-.1 1.96 1.35 2.16 3.25.2 1.9-.44 3.52-1.44 3.63-.99.1-1.96-1.35-2.16-3.25-.2-1.9.44-3.52 1.44-3.63Z" class="cls-9"/><path d="M243.66 220.52s1.71 4.64 2.19 5.93c.13.36.2.75.2 1.13-.01 1.25-.5 3.44-4.11 2.5" class="cls-1"/><path d="M179.66 236.42s.39 5.91 5.26 11.56l.16-6.41-5.43-5.15Z" style="fill:#222831;stroke:#222831;stroke-linecap:round;stroke-linejoin:round;stroke-width:2px"/><path d="M246.4 241.45s-11.12 5.03-20.76-6.4" class="cls-1"/><path d="M395.57 0h16.79v48.37h-16.79z" class="cls-9"/><circle cx="403.97" cy="64.03" r="8.4" class="cls-9" transform="rotate(-22.62 403.998 64.03)"/></g></svg>