<svg xmlns="http://www.w3.org/2000/svg" width="865" height="560" fill="none"><g clip-path="url(#a)"><path fill="#7971EA" fill-opacity=".2" fill-rule="evenodd" d="m261.285 68.593 30.26 111.944 508.04-96.052L801.956 0 261.285 68.593ZM160.567 173.348l-99.874-32.322L.001 225.212l95.293 156.394s3.77-97.743 62.14-60.914l-.813-12.164s-19.044.115-27.99-11.889c0 0-8.357-9.858-2.673-20.139 0 0 8.147-31.744 6.908-43.86 0 0-1.848-35.69 18.28-52.538l9.421-6.754Zm553.29 59.826 120.775-60.149 29.215 148.857-108.43 8.551s-.395-46.904-38.562-32.176l-2.998-65.083Z" clip-rule="evenodd"/><path fill="#7971EA" fill-rule="evenodd" d="M672.738 130.98s-58.533 14.496-51.643 43.63c0 0-1.685 15.394 22.129 16.713 0 0 25.824 1.022 55.202-23.448 0 0 11.088 7.6 11.145 32.582 0 0 1.352-5.6 6.543-3.756l-.331-2.155s5.924-42.532-8.785-46.121c0 0-9.353-19.912-29.395-17.983l-4.865.538Z" clip-rule="evenodd"/><path fill="#D4D3EB" fill-rule="evenodd" d="M801.986 425.59s38.873-10.52 44.589-45.057c0 0 4.472-18.545-24.714-32.559 0 0 25.533-2.272 34.776 25.042 0 0-3.277 53.771-54.651 52.574Zm-85.094-2.787s2.404-8.433 21.233 2.571c0 0 19.454 12.52 37.395-4.485 0 0 6.349-3.521 5.216 4.537l-8.652 5.439-8.146 3.448-14.53 1.766-10.33-2.702-11.454-6.105-7.212-4.787-3.52.318Zm61.719-81.395s-12.238 15.017-8.909 36.411c0 0 3.399 20.8 20.968 27.641l9.735 6.977 1.446-1.597s-6.169-6.802-9.629-7.915c0 0-26.379-19.84-15.583-40.044 0 0 6.148-9.375 2.889-16.011l-.917-5.462Z" clip-rule="evenodd"/><path fill="#7971EA" fill-rule="evenodd" d="M153.449 255.962s-1.44 21.128 2.264 51.728l-3.78.719-18.152-5.964-10.322-7.806-1.845-6.317 2.779-7.748 3.652-12.34 4.458-27.269 1.696-29.153 4.532-14.398 5.452-8.779 6.828-8.59 9.007-6.938 9.392-5.334 8.378-1.808 9.286-1.865 8.841.283 13.148 3.088 8.754 4.992 3.06 2.443 4.533 7.1 6.61 14.773 2.928 14.387-.341 9.687-19.914 9.236-13.455 3.541-12.677 1.71-16.64-1.438-11.83-3.734-.823-2.858-1.883-8.127 1.393-11.091 1.446-6.147-.586.158-4.493 8.619-2.894 11.045s.01 11.001.701 13.176l-4.834 2.372-1.377 4.824-.78 5.774 2.551 5.246 4.937 2.803Z" clip-rule="evenodd"/><path fill="#7971EA" fill-rule="evenodd" d="M173.079 273.91s14.549 3.083 15.873 3.06c1.325-.022 11.355.228 11.355.228l12.861-.739 7.819-4.136 3.305-3.294 4.909 6.514 7.218 4.077 2.34 4.282-2.094 5.103-18.698 10.65-23.518 6.364-8.634 1.9-6.416-13.367-5.535-17.645-.785-2.997Z" clip-rule="evenodd"/><path fill="#E0DFEB" fill-rule="evenodd" d="M227.786 386.077s-15.012 57.271 14.872 95.606l16.186.753s-31.751-36.812-31.058-96.359Z" clip-rule="evenodd"/><path fill="#7971EA" fill-opacity=".1" fill-rule="evenodd" d="M95.12 426.207s32.662 55.614 86.094 49.516l-5.592 7.518-35.082-.443-15.51-8.34-16.382-12.515-10.249-14.356-2.965-13.892-.314-7.488Z" clip-rule="evenodd"/><path fill="#7971EA" fill-rule="evenodd" d="M419.939 397.735s1.169 12.51 22.643 11.718c21.474-.793 23.637.165 25.578 15.836 0 0-3.292 6.873-10.352 11.827-4.104 2.879-9.391 4.223-16.282 5.505 0 0-5.758-.165-11.919-3.126-10.118-4.859-21.647-16.063-12.936-37.631l3.268-4.129ZM85.619 536.341l-2.185 6.849 68.529-1.548-3.102-5.955-63.242.654Z" clip-rule="evenodd"/><path stroke="#222831" stroke-linecap="round" stroke-linejoin="round" stroke-miterlimit="1.5" stroke-width="2.109" d="M821.886 229.482c.861-4.716 2.141-11.731 5.853-12.088 3.69-.354 4.549 11.417 8.192 10.739 3.845-.716 1.514-12.872 5.397-13.268 3.948-.403 4.544 12.152 8.504 11.85 3.689-.282 1.012-12.644 4.709-12.859 4.034-.235 6.791 7.158 8.627 12.084"/><path stroke="#EBEBEB" stroke-linecap="round" stroke-linejoin="round" stroke-miterlimit="1.5" stroke-width="2.109" d="M21.081 200.367c.862-4.716 2.142-11.731 5.854-12.088 3.69-.354 4.549 11.418 8.192 10.739 3.845-.715 1.514-12.872 5.397-13.268 3.948-.403 4.544 12.153 8.504 11.85 3.689-.281 1.012-12.644 4.71-12.859 4.033-.234 6.79 7.158 8.626 12.084"/><path stroke="#222831" stroke-linecap="round" stroke-linejoin="round" stroke-miterlimit="1.5" stroke-width="2.107" d="m66.876 292.28 18.287-4.548-6.227 17.446-12.06-12.898Z" clip-rule="evenodd"/><path stroke="#EBEBEB" stroke-linecap="round" stroke-linejoin="round" stroke-miterlimit="1.5" stroke-width="2.151" d="m550.384 60.653-24.663 31.384 43.504 11.49-18.841-42.874Z" clip-rule="evenodd"/><path fill="#D4D3EB" stroke="#EBEBEB" stroke-linecap="round" stroke-linejoin="round" stroke-miterlimit="1.5" stroke-width="2.152" d="M785.041 293.289a8.043 8.043 0 1 0 .001-16.087 8.043 8.043 0 0 0-.001 16.087Z"/><path fill="#D4D3EB" fill-rule="evenodd" d="m664.623 432.481 52.584 27.741 8.556-10.221 5.917 2.513-9.618 20.183-61.166-34.909 3.727-5.307Z" clip-rule="evenodd"/><path stroke="#222831" stroke-linecap="round" stroke-linejoin="round" stroke-miterlimit="1.5" stroke-width="2.149" d="M230.15 310.281h423.065l-58.798 208.05h-299.44l-64.827-208.05Z" clip-rule="evenodd"/><path stroke="#222831" stroke-linecap="round" stroke-linejoin="round" stroke-miterlimit="1.5" stroke-width="2.149" d="M441.682 442.296c15.459 0 27.99-12.531 27.99-27.99 0-15.458-12.531-27.99-27.99-27.99-15.458 0-27.989 12.532-27.989 27.99 0 15.459 12.531 27.99 27.989 27.99Z"/><path fill="#222831" fill-rule="evenodd" d="m371.56 222.924 3.849-4.354 4.026-.714 4.241 2.706-.458-6.31-.901-10.673s.203-16.272 7.599-21.866c0 0 18.329 13.242 39.586 12.087 0 0 29.237 1.686 46.836-18.311l5.245-6.714 2.308-8.45-.484-8.251-3.336-7.845-5.045-6.153-9.347-3.569-11.201-.808-13.695 2.159-8.743 4.106-9.417 4.926-17.283 6.718-6.473 1.446 1.886-7.443-.286-5.039-2.87-2.268-3.477 1.48-3.447 2.886-2.329 8.645-2.576-3.328-3.975-3.04-4.288.519-1.796 4.26.537 7.635.796 3.784-3.029 4.303-5.285 10.419-2.484 10.631-.196 9.246.195 9.704 3.339 10.449 1.978 7.027Z" clip-rule="evenodd"/><path fill="#222831" fill-rule="evenodd" d="M469.474 175.632s-10.145 29.48 1.342 46.304c0 0 7.01-11.873 14.77-1.384 0 0 5.225-37.84-11.465-48.946l-4.647 4.026Zm339.211 313.376 7.769 25.444 17.186-4.195 5.137-35.823-23.085 10.841-7.007 3.733Zm-53.674-37.854 6.868 38.745 33.158-9.025-5.205-23.805s-18.36-.12-34.821-5.915Zm11.705 67.57 23.906-4.635 5.552 20.448s-18.564 1.996-28.15-7.027l-1.308-8.786ZM91.43 515.909l-1.706 5.323 55.048-1.104-2.078-5.003-51.264.784Zm-2.576 9.391-2.208 5.327 61.411-.953-2.341-4.769-56.862.395Z" clip-rule="evenodd"/><path stroke="#222831" stroke-linecap="round" stroke-linejoin="round" stroke-miterlimit="1.5" stroke-width="2.149" d="M383.705 177.373c2.587 1.988 5.184 3.983 7.969 5.68 6.288 3.832 14.19 7.296 21.333 8.88 24.856 5.509 53.141-.973 67.329-21.597 7.416-10.781 2.92-28.841-7.896-33.495-13.833-5.953-28.216-3.728-41.635 3.382 0 0-16.034 9.606-31.116 12.441"/><path stroke="#222831" stroke-linecap="round" stroke-linejoin="round" stroke-miterlimit="1.5" stroke-width="2.149" d="M396.564 159.064s10.405-21.874-.479-20.588c0 0-8.254.622-8.668 20.473m0-7.407s-4.573-10.162-9.786-5.878c0 0-4.717 4.417.15 15.835l1.927 4.031m-3.332-4.476s-10.562 13.202-10.881 36.759c0 0-.867 4.205 5.853 24.719m17.792-41.188s-10.367 11.731-5.466 38.645m84.515-37.127s-7.439 17.808 1.94 39.054m7.548-47.455s11.903 9.983 7.557 45.483"/><path stroke="#222831" stroke-linecap="round" stroke-linejoin="round" stroke-miterlimit="1.5" stroke-width="2.149" d="M469.181 227.385s.282-11.248 10.547-11.188c0 0 2.183.223 4.168 2.332 2.048 2.176 3.889 6.362 2.91 14.384 0 0-1.463 15.265-9.736 15.569 0 0-6.603.704-6.686-7.12"/><path stroke="#222831" stroke-linecap="round" stroke-linejoin="round" stroke-miterlimit="1.5" stroke-width="2.149" d="M475.309 228.063s5.39-.781 6.261 5.939"/><path stroke="#222831" stroke-linecap="round" stroke-linejoin="round" stroke-miterlimit="1.5" stroke-width="2.149" d="M479.519 230.858s-3.672 1.622-3.213 6.084m-90.625-9.646s.772-10.913-8.843-9.56c0 0-8.002 1.322-5.788 16.609 0 0 2.374 14.136 13.656 13.775 0 0 5.178-.298 4.858-5.84"/><path stroke="#222831" stroke-linecap="round" stroke-linejoin="round" stroke-miterlimit="1.5" stroke-width="2.149" d="M376.5 235.244s-.967-4.63 4.142-5.848"/><path stroke="#222831" stroke-linecap="round" stroke-linejoin="round" stroke-miterlimit="1.5" stroke-width="2.149" d="M383.231 237.328s-1.626-4.45-5.564-6.293m10.001 16.228s.964 28.251 24.893 35.543c0 0 9.843 3.566 18.949 4.246 0 0 12.133.843 19.424-2.478 0 0 20.338-8.136 23.465-32.644.169-1.317.243-1.767.305-3.173"/><path stroke="#222831" stroke-linecap="round" stroke-linejoin="round" stroke-miterlimit="1.5" stroke-width="2.149" d="M405.822 279.787 409.794 296s2.99 8.242 31.004 5.649c0 0 20.209-1.875 24.978-11.487l-.052-17.18m-57.025 21.631s-17.062-5.9-42.658-3.095c0 0-35.414 2.825-37.971 18.517"/><path stroke="#222831" stroke-linecap="round" stroke-linejoin="round" stroke-miterlimit="1.5" stroke-width="2.149" d="M465.172 291.304c2.944-.733 7.993-1.986 10.978-2.525 6.958-1.256 13.929-2.462 20.939-3.378 19.532-2.553 43.67-3.335 53.264 17.326 1.12 2.412 2.11 4.948 2.49 7.579"/><path fill="#222831" d="M439.184 227.375c1.364 0 2.471-1.674 2.471-3.738 0-2.065-1.107-3.738-2.471-3.738-1.365 0-2.471 1.673-2.471 3.738 0 2.064 1.106 3.738 2.471 3.738Zm-23.936 0c1.365 0 2.471-1.674 2.471-3.738 0-2.065-1.106-3.738-2.471-3.738s-2.471 1.673-2.471 3.738c0 2.064 1.106 3.738 2.471 3.738Z"/><path fill="#D4D3EB" fill-rule="evenodd" d="M797.218 534.345s15.018 1.544 31.279-7.471c3.128-1.735 4.882 4.036 4.882 6.408 0 7.152-15.682 13.59-35.132 13.59-19.45 0-35.24-5.81-35.24-12.962 0-2.505 1.4-7.023 5.297-6.834.321.017 3.718 9.709 28.914 7.269Z" clip-rule="evenodd"/><path stroke="#222831" stroke-linecap="round" stroke-linejoin="round" stroke-miterlimit="1.5" stroke-width="2.149" d="m426.555 226.333-1.885 15.366s-.493 4.659 10.54 3.527m-4.29 23.2s17.973 1.937 26.241-18.619m-39.695-43.408s-3.259.334-10.371 4.669m27.909-6.312s4.981-.602 12.497 2.77"/><path stroke="#222831" stroke-linecap="round" stroke-linejoin="round" stroke-miterlimit="1.5" stroke-width="2.153" d="M800.684 109.676c15.384 0 27.855-12.428 27.855-27.759 0-15.33-12.471-27.758-27.855-27.758s-27.855 12.428-27.855 27.758c0 15.331 12.471 27.759 27.855 27.759Z"/><path stroke="#222831" stroke-linecap="round" stroke-linejoin="round" stroke-miterlimit="1.5" stroke-width="2.151" d="M261.504 121.145c31.162 0 56.423-25.174 56.423-56.228 0-31.054-25.261-56.228-56.423-56.228-31.162 0-56.424 25.174-56.424 56.228 0 31.054 25.262 56.228 56.424 56.228Z"/><path stroke="#222831" stroke-linecap="round" stroke-linejoin="round" stroke-miterlimit="1.5" stroke-width="2.149" d="m627.198 187.52-1.278 9.325-5.108 39.427s-3.812 24.151 21.94 29.145c0 0 36.681 11.447 63.149-21.325 0 0 9.002-11.439 5.365-21.797"/><path stroke="#222831" stroke-linecap="round" stroke-linejoin="round" stroke-miterlimit="1.5" stroke-width="2.154" d="M706.481 219.913s8.109 6.377 13.428-10.183c0 0 4.166-13.04-5.411-12.883 0 0-4.85-.285-8.247 7.017"/><path stroke="#222831" stroke-linecap="round" stroke-linejoin="round" stroke-miterlimit="1.5" stroke-width="2.149" d="M714.664 203.965s-4.396.594-6.057 7.349m6.057 0s1.28-3.184-3.028-3.675m-91.022-32.732s.623 26.712 45.534 12.387c0 0 17.965-5.71 40.104-27.068m-7.745 7.943s11.728 7.598 10.1 31.339"/><path stroke="#222831" stroke-linecap="round" stroke-linejoin="round" stroke-miterlimit="1.5" stroke-width="2.149" d="M698.507 147.757s25.156-10.381 16.335 49.088"/><path stroke="#222831" stroke-linecap="round" stroke-linejoin="round" stroke-miterlimit="1.5" stroke-width="2.149" d="M706.252 147.062c-1.665-2.579-4.363-6.441-6.886-8.265-3.209-2.317-6.458-4.74-10.156-6.15-17.602-6.71-34.706 3.482-49.008 12.586-11.284 7.183-20.89 13.54-19.588 30.639m91.517 47.998s3.841 34.847 4.586 74.097c0 0-22.322 24.733-53.344 4.045 0 0 2.537-18.561-2.845-34.659"/><path stroke="#222831" stroke-linecap="round" stroke-linejoin="round" stroke-miterlimit="1.5" stroke-width="2.149" d="M663.588 302.155s-19.474-16.393-46.321 8.195"/><path stroke="#222831" stroke-linecap="round" stroke-linejoin="round" stroke-miterlimit="1.5" stroke-width="2.153" d="M737.713 296.714s-27.67-10.222-36.791 35.071l-21.545 95.2"/><path stroke="#222831" stroke-linecap="round" stroke-linejoin="round" stroke-miterlimit="1.5" stroke-width="2.149" d="M737.714 296.801s27.295 5.495 13.916 56.052l-17.158 58.446m-10.708 36.476 5.489-18.696"/><path stroke="#222831" stroke-linecap="round" stroke-linejoin="round" stroke-miterlimit="1.5" stroke-width="2.149" d="m670.131 423.231 61.582 29.335-10.205 19.753-61.466-34.693 10.089-14.395Z" clip-rule="evenodd"/><path stroke="#222831" stroke-linecap="round" stroke-linejoin="round" stroke-miterlimit="1.5" stroke-width="2.149" d="M713.331 469.34c.909-2.562-.667 1.763-.771 2.015-.634 1.541-3.01 5.666-13.606 9.476"/><path stroke="#222831" stroke-linecap="round" stroke-linejoin="round" stroke-miterlimit="1.5" stroke-width="2.155" d="M666.619 441.498s-33.763 4.763-55.172 16.587"/><path fill="#222831" fill-rule="evenodd" stroke="#222831" stroke-linecap="round" stroke-linejoin="round" stroke-miterlimit="1.5" stroke-width="2.149" d="M663.411 284.458s13.656-4.153 27.053-13.667c9.296-6.602 18.469-15.786 22.867-27.954l-1.042-11.321s-9.543 31.82-52.248 36.076c0 0 3.544 3.613 3.37 16.866Z" clip-rule="evenodd"/><path fill="#222831" d="M640.313 211.018c.936 0 1.695-1.871 1.695-4.178 0-2.308-.759-4.179-1.695-4.179-.935 0-1.694 1.871-1.694 4.179 0 2.307.759 4.178 1.694 4.178Zm14.25.06c.965 0 1.748-1.87 1.748-4.178s-.783-4.178-1.748-4.178-1.748 1.87-1.748 4.178.783 4.178 1.748 4.178Z"/><path stroke="#222831" stroke-linecap="round" stroke-linejoin="round" stroke-miterlimit="1.5" stroke-width="2.149" d="m646.529 214.817-1.911 11.583s-2.158 6.349 7.983 3.265m-15.029 6.995s-2.765 7.809 18.318 2.828l10.381-2.497"/><path stroke="#222831" stroke-linecap="round" stroke-linejoin="round" stroke-miterlimit="1.5" stroke-width="2.149" d="m638.893 241.214 1.73 8.345s7.869 7.509 23.687-3.994c0 0 2.198-3.087.185-7.332m-440.857-11.977 1.759 9.235s2.767 16.453 3.678 21.88a9.612 9.612 0 0 1-.314 4.5c-1.705 5.269-8.09 16.167-31.833 16.094 0 0-23.554-.6-37.182-12.015"/><path stroke="#222831" stroke-linecap="round" stroke-linejoin="round" stroke-miterlimit="1.5" stroke-width="2.149" d="M173.109 274.04s3.33 23.846 23.307 48.702a5.946 5.946 0 0 1 1.247 4.645c-.761 4.566-4.02 12.687-18.057 10.418 0 0-18.353-4.317-21.314-15.598 0 0-5.742-23.459-5.397-65.973"/><path stroke="#222831" stroke-linecap="round" stroke-linejoin="round" stroke-miterlimit="1.5" stroke-width="2.149" d="M159.88 229.65s27.94 17.185 74.485-9.006c0 0 5.059-15.396-13.013-45.066l-.226-.369a2.904 2.904 0 0 0-.371-.484c-1.967-1.948-17.801-16.361-48.757-7.62 0 0-36.91 11.285-38.751 53.035 0 0 2.257 27.787-11.01 65.977a9.57 9.57 0 0 0 2.49 10.141c4.211 3.909 12.761 8.901 30.017 12.102m69.827-38.819s1.917 4.495 10.128 8.656a6.838 6.838 0 0 1 .715 11.648c-8.33 5.559-23.221 12.788-48.202 17.373"/><path stroke="#222831" stroke-linecap="round" stroke-linejoin="round" stroke-miterlimit="1.5" stroke-width="2.149" d="M160.75 236.835s-13.741-7.574-14.777 7.321c0 0-2.325 14.568 13.565 10.443"/><path stroke="#222831" stroke-linecap="round" stroke-linejoin="round" stroke-miterlimit="1.5" stroke-width="2.149" d="M151.086 245.728s.815-4.371 5.933-4.762"/><path stroke="#222831" stroke-linecap="round" stroke-linejoin="round" stroke-miterlimit="1.5" stroke-width="2.149" d="M153.814 242.282s2.58 1.543 1.906 6.736m1.669 70.65s-30.046-22.965-47.079 7.064c0 0-23.011 42.943-14.459 113.747 0 0 3.598 25.422 45.993 42.115"/><path stroke="#222831" stroke-linecap="round" stroke-linejoin="round" stroke-miterlimit="1.5" stroke-width="2.149" d="M139.985 378.27s-9.367 28.664 2.901 62.023"/><path stroke="#222831" stroke-linecap="round" stroke-linejoin="round" stroke-miterlimit="1.5" stroke-width="2.149" d="M139.732 428.564s10.107 19.788 47.261 42.795"/><path stroke="#222831" stroke-linecap="round" stroke-linejoin="round" stroke-miterlimit="1.5" stroke-width="2.149" d="M227.858 480.963s-.29-.515-3.079-2.393c-9.442-6.362-32.179-17.86-49.968 3.688"/><path stroke="#222831" stroke-linecap="round" stroke-linejoin="round" stroke-miterlimit="1.5" stroke-width="2.149" d="M213.672 472.491s-11.557-11.511-18.358-6.556l-7.772 5.857m40.217-85.472s-5.549 39.838 30.74 94.612"/><path stroke="#222831" stroke-linecap="round" stroke-linejoin="round" stroke-miterlimit="1.5" stroke-width="2.149" d="M227.924 400.461s16.159 46.325 51.021 71.021c1.776 1.259-.133.048 1.763 1.214M197.057 329.56s17.751-5.616 48.71 30.846"/><path fill="#222831" fill-rule="evenodd" stroke="#222831" stroke-linecap="round" stroke-linejoin="round" stroke-miterlimit="1.5" stroke-width="2.149" d="M158.361 266.213s2.572 9.239 17.357 19.017l-2.72-11.183-10.005-6.013-4.632-1.821Z" clip-rule="evenodd"/><path fill="#222831" d="M196.998 247.534c1.121.059 2.115-1.519 2.219-3.523.104-2.004-.721-3.676-1.843-3.734-1.122-.058-2.115 1.519-2.219 3.523-.104 2.004.721 3.676 1.843 3.734Zm18.45-1.253c1.049.055 1.979-1.453 2.079-3.368.099-1.915-.671-3.511-1.719-3.565-1.049-.055-1.98 1.453-2.079 3.368-.099 1.915.67 3.511 1.719 3.565Z"/><path stroke="#222831" stroke-linecap="round" stroke-linejoin="round" stroke-miterlimit="1.5" stroke-width="2.149" d="M204.78 267.959s5.931 2.044 10.196-1.697m-4.485-16.62 1.465 4.019s2.522 5.882-3.912 4.77m-55.488-28.357s-1.845-15.108 8.212-29.225c0 0-6.819 15.825-.957 28.543"/><path stroke="#222831" stroke-linecap="round" stroke-linejoin="round" stroke-miterlimit="1.5" stroke-width="2.149" d="m87.201 502.993 60.086-1.372 17.249 47.323-95.45 2.824L87.2 502.993Z" clip-rule="evenodd"/><path stroke="#222831" stroke-linecap="round" stroke-linejoin="round" stroke-miterlimit="1.5" stroke-width="2.149" d="M754.562 449.82s13.81 77.357 13.547 77.095c-.264-.263 2.085 8.514 35.732 7.624 0 0 15.875.166 26.661-8.997.472-.401.771-.957.858-1.564 1.195-8.546 10.265-73.585 10.265-73.585"/><path stroke="#222831" stroke-linecap="round" stroke-linejoin="round" stroke-miterlimit="1.5" stroke-width="2.155" d="M800.659 441.929c-.45-.005 1.427-.004 0 0Zm0 0c6.051.062 10.929.266 16.071.713m0 0c-.831-.085.86.075 0 0Zm6.07.61c.929.094-.313.008.567.113 11.359 1.363 18.251 3.526 18.251 6.101 0 4.166-19.512 7.549-43.55 7.549-24.029 0-43.543-3.383-43.543-7.549 0-2.799 8.798-5.243 21.855-6.547m0 0c-1.034.085.986-.098 0 0Zm6.338-.52c-1.126.074 1.078-.089 0 0Zm0 0c3.636-.238 7.504-.394 11.527-.455m0 0c-1.259.003.592-.008 0 0Z"/><path stroke="#222831" stroke-linecap="round" stroke-linejoin="round" stroke-miterlimit="1.5" stroke-width="2.149" d="M800.502 456.634s-4.685-10.093-5.706-14.51c-1.957-8.5-1.543-24.427 17.609-44.876 0 0 24.338-23.127 6.719-50.077a1.09 1.09 0 0 1 .009-1.212 1.085 1.085 0 0 1 1.118-.462c11.769 2.567 57.254 15.686 24.116 59.891 0 0-21.802 24.888-43.615 21.026 0 0-8.877.042 4.791 30.093m-21.32-.46s-13.871-10.024-4.025-31.279c0 0-26.822 25.529-56.323-.496 0 0-1.927-2.658-7.083-1.707 0 0-.246-16.39 24.444-8.94 0 0 12.644 5.433 28.459-5.841a5.413 5.413 0 0 1 1.382-.715c2.953-.925 12.569-2.957 14.599 9.912 0 0 .965 5.848-3.293 14.456 0 0-6.96 14.452 13.858 25.553"/><path stroke="#222831" stroke-linecap="round" stroke-linejoin="round" stroke-miterlimit="1.5" stroke-width="2.149" d="M818.025 455.8s2.911-15.025-5.996-29.358c-.163-.255.627 1.008.56.93m-12.029-14.877c-1.909-2.388.134.154 0 0Zm0 0c-2.102-2.411-5.263-3.973-8.454-5.72 0 0-41.934-20.885-13.788-65.821 0 0 1.26 6.097 2.722 7.678 0 0 26.382 21.989 17.466 47.3 0 0-3.836 6.503 4.27 13.089.049.037-.337.019-.279.007m0 0c-1.725-1.974.067-.018 0 0Zm14.333 15.951c-.415-.893 1.417 1.621 0 0Zm0 0c2.94 6.279 6.275 15.658 7.393 29.774m-62.136 34.822 32.844-8.95-5.543-23.201m48.126 16.55-28.559 14.99 7.412 25.728 16.723-4.787m-65.845 8.593 23.493-5.026 4.887 20.12m68.294-53.431-26.409.101m-77.476.296-155.115.594m-321.383 1.229-252.301.966m736.338-64.286s-7.147 9.63-26.192 2.804"/><path stroke="#222831" stroke-linecap="round" stroke-linejoin="round" stroke-miterlimit="1.5" stroke-width="2.149" d="M780.913 366.846s.201 10.683 9.16 22.96m29.118 19.148s12.048-5.013 16.81-26.953"/><path fill="#D4D3EB" fill-rule="evenodd" d="m294.48 519.64-31.797 12.604 365.854 1.652-33.765-14.155-300.292-.101ZM68.1 552.966l-3.6 6.593 102.841-1.855-1.979-7.673-97.262 2.935Z" clip-rule="evenodd"/><path fill="#222831" fill-rule="evenodd" d="M439.937 287.588s19.525.115 26.105-4.155l-.078-10.109-7.221 6.724s-11.632 7.803-18.806 7.54Z" clip-rule="evenodd"/></g><defs><clipPath id="a"><path fill="#fff" d="M0 0h865v559.883H0z"/></clipPath></defs></svg>