<svg xmlns="http://www.w3.org/2000/svg" id="Layer_2" viewBox="0 0 840.98 570.83"><defs><clipPath id="clippath"><path d="M540.28 455.63s16.57-20.12 38.48-13.56c0 0 15.83 23.03 2.24 35.67s-11.14 10.26-60.17 8.08" class="cls-1"/></clipPath><style>.cls-1,.cls-2{fill:none}.cls-4{fill:#e0dfeb}.cls-6{fill:#222831}.cls-7{fill:#7971ea}.cls-2{stroke-linecap:round;stroke-linejoin:round;stroke:#222831;stroke-width:2px}</style></defs><g id="DUO-Illustrations"><path d="M205.64 324.18s72.88 21.42 133.8-5.39l.9 16.16s-60.79 29.76-118.09 22c0 0-14.68-18.92-16.61-32.78Z" style="stroke-linecap:round;stroke-linejoin:round;stroke:#ebebeb;stroke-width:8.33px;fill:#e0dfeb"/><path d="M339.29 84.28h407.09v267.4H339.29z" class="cls-2"/><path d="M351.46 99.46h382.76V336.5H351.46zm-12.17 252.22-21.39 41.17h451.71l-23.23-41.17M317.9 392.85h451.71v16.24H317.9z" class="cls-2"/><path d="m502.64 392.85 5.9-20.58h70.06l4.42 20.58M389.44 127.71h53.84v38.9h-53.84z" class="cls-2"/><path d="M472.41 136.4h225.67v22.28H472.41z" class="cls-6"/><path d="m403.27 145.9 12.78 13.3 36.2-27.48-5.11-10.9-31.09 25.52-5.54-7.63-7.24 7.2Z" class="cls-7"/><path d="M389.44 194.43h53.84v38.9h-53.84z" class="cls-2"/><path d="M472.41 203.11h225.67v22.28H472.41z" class="cls-6"/><path d="m403.27 212.09 12.78 13.3 36.2-27.48-5.11-10.9-31.09 25.52-5.54-7.63-7.24 7.2Z" class="cls-7"/><path d="M389.44 261.14h53.84v38.9h-53.84zm82.97 8.69h225.67v22.28H472.41z" class="cls-2"/><path d="M397.85 270.67h8.3v19.84h-8.3zm14.36 0h8.3v19.84h-8.3zm14.35 9.92h8.3v9.92h-8.3z" class="cls-7"/><path d="M520.84 486.13s6.51 32.59 41.73 23.04c0 0 23.12-3.78 36.99-23.8 0 0 6.96-18.39 0-28.29l-14.71 28.29-30.08 11.4-33.93-10.65Z" class="cls-4"/><path d="M525.33 486.27s42.19 2.58 54.78-7.63c0 0 14.92-8.83 0-35.92 0 0 15.83 1.75 18.41 12.12 0 0 6.04 16.86-15.27 33.23 0 0-13.96 10.16-34.12 8.53 0 0-22.99.83-23.8-10.33Z" class="cls-7"/><path d="M116.73 292.08S46.84 516.66 286.01 569.83H85.75s-46.48-114.64 19.5-285.69c0 0-.08 7.3 11.49 7.94Z" class="cls-4"/><path d="M143.17 343.49S228 470.55 322.83 491.21c0 0 180.88 3.35 206.99-23.35l-6.74 17.96s-134.56 45.36-206.99 27.84c0 0-50.12-11.36-89.35-40.41 0 0-53.26-30.92-71.84-60.17 0 0-26.37-26.99-20.66-64.66 0 0 3.52-9.52 8.93-4.94Z" class="cls-4"/><path d="M68.69 171.52s13.92 28.14 42.66 25.14c0 0-24.71-40.08-2.69-55.23 0 0 77.19-10.21 102.37-32.78 0 0 23.54-18.66 15.27-73.19 0 0-5.29-46.52-76.48-10.33 0 0-47.66 16.7-61.36 30.98 0 0-2.08-18.53-12.12-14.82 0 0-8.35 8.65-1.35 18.41 0 0-17.54-6.94-16.66 4.49 0 0 .49 9.1 11.72 11.23 0 0-22.51 39.11-1.35 96.09Z" class="cls-7"/><path d="M1 569.83h814.28M230.47 90.65l17.16 50.83m1.8 35.46 4.43 25.51c1.75 10.09-2.83 20.24-11.56 25.59-16.38 9.98-49.91 15.94-113.01-21.93" class="cls-2"/><path d="M94.55 195.23s-1.88-5.26 10.7 89.79c0 0 42.48 42.17 84.68 4.02 0 0-11.56-13.44-24.25-64.07" class="cls-2"/><path d="M105.24 284.13S39.98 434.04 84.71 568.65m109.68-267.9s62.77 7.12 144.9-11.71M149.24 132.78s100.22-12.28 91.51-89.17c0 0-8.59-52.3-78.61-24.05 0 0-42.54 14.69-75 36.37 0 0 .96-17.12-9.67-14.76a4.935 4.935 0 0 0-3.25 2.3c-1.67 2.83-4.07 9.18 1.11 17.16 0 0-17.24-8.64-17.01 4.69 0 0 .27 7.74 10.73 9.39 0 0-23.93 43.74 1.1 99.73.56 1.25 1.25 2.44 2.06 3.54 4.27 5.52 18.41 21.38 39.45 18.87 0 0-28.97-48.13 1.8-56.87l35.78-7.19Zm-.84 272.24s-29.41-50.31-3.51-67.92c2.17-1.47 4.7-2.33 7.32-2.48 14.44-.66 69.34 5.85 156.12 123.35 0 0 95.04-5.05 221.09-2.76 0 0 4.6 12.12-8.61 30.93 0 0-120.5 42.14-206.6 28.7 0 0-108.69-32.99-165.82-109.81Z" class="cls-2"/><path d="M292.74 437.7s26.81 36.61 26.99 36.96m-46.01 25.06s30.11 46.65 69.12 70.1M222.19 357.57s54.19 9.27 116.15-22.53" class="cls-2"/><path d="M189.92 289.04s9.4 29.19 37.93 80.16m-12.16-215.7s8.63-12.71 18.37-2.91M529.9 455.43c-3.15 2.46 4.1-15.53 27.54-14.89 1.09.03 13.89.1 15.05.22M121.42 151.73s-8.88.56-7.45 12.67" class="cls-2"/><path d="M117.62 156.3s6.41 3.4 4.51 9.54m125.51-24.37 16.16 22.73s4.2 12.81-14.37 11.84m272.76 310.09s4.27 6.9 18.09 9.16c0 0 29.39 5.9 45.47-10.33 0 0 7.95-8.76 9.77-11.96.86-1.52 3.28-5.63 3.87-12.1.68-7.65-4.23-14.68-11.64-16.68-2.53-.65-5.46-1.35-8.69-2.02-1.7-.35 1.95.22 0 0m13.17 6.71-4.04 1.8" class="cls-2"/><path d="M540.28 455.63s16.57-20.12 38.48-13.56c0 0 15.83 23.03 2.24 35.67s-11.14 10.26-60.17 8.08" class="cls-1"/><g style="clip-path:url(#clippath)"><path id="Layer9" d="M110.45 197.11s-22.91-42.25-1.8-55.23c0 0 34.19-7.46 53.88-11.67 0 0 53.86-9.07 73.64-52.98 0 0 19.4-38.16-13.92-59.72 0 0-21.13-14.9-62.41 3.59 0 0-48.58 15.74-72.69 35.47 0 0 1.16-16.84-9.93-15.72 0 0-9.46 5.28-1.8 19.31 0 0-15.82-7.03-17.11 4.04 0 0-.05 8.95 10.73 10.33 0 0-13.98 23.2-10.73 65.56s33.87 61.28 52.13 57.02Z" class="cls-7"/></g><path d="M540.28 455.63s16.57-20.12 38.48-13.56c0 0 15.83 23.03 2.24 35.67h0s-11.14 10.26-60.17 8.08" class="cls-2"/><path d="M128.82 206.87s23.6 36.54 42.69 36.94l-4.94-18.86-37.75-18.08Z" class="cls-6"/><path d="M317.44 410.39h453.05l4.49 10.78-466.97.45 9.43-11.23Z" style="fill:rgba(121,113,234,.1)"/><path d="M472.4 269.83h112.84v22.28H472.4z" class="cls-6"/><path d="m515.45 390.64 1.8-9.14 52.98-1.19.45 10.33h-55.23ZM635.79 81.72 730.17 0h110.81l-1.18 108.89-91.18 105.05.45-59.93-.9-71.98-112.39-.31Z" class="cls-4"/></g></svg>