<svg xmlns="http://www.w3.org/2000/svg" xml:space="preserve" style="fill-rule:evenodd;clip-rule:evenodd;stroke-linecap:round;stroke-linejoin:round;stroke-miterlimit:1.5" viewBox="0 0 1854 1537"><path d="m655 392-219-14-149 426 272 481 96.615-160.95V1002L647 995l-108.607 43.01L587.861 908s-39.067-93.668 67.754-174V606L495 604l-2-97 162.615-2L655 392Z" style="fill:#d4d3eb;fill-opacity:.5" transform="translate(-287 -145.097)"/><path d="m813 1443.11 384.5 3.89 395.5 7-10-17-245-31-347-2-166 23-12 16.11ZM1733 378l333 38 75 348-254 665-13-25 10-29.3-147-250.7-2-147.795h228.04v-95.731H1734L1730 825s50.53-7.252 103-45l138.89 57.655L1912 676.827S1949.03 458.214 1733 414v-36Z" style="fill:#e0dfeb" transform="translate(-287 -145.097)"/><path d="M690.205 996.839V1112h49.502m152.049 0h13.161m147.083 0h301.36m146.66 0h11.28m86.5 0h0Zm66.49 0h37.98V974.75m0-88.866v-54.282m0-379.673v-72.793H690.205v161.155m0-1.102h0Zm0 89.969V750.84" style="fill:none;stroke:#222831;stroke-width:7.78px" transform="matrix(1.06368 0 0 1.07724 -365.54 -218.935)"/><path d="M872.67 1285.33s127.5 17.38 140.15-47.11c0 0 19.53 6.35-2.64 44.22 0 0-32.288 39.6-122.728 23.58l-14.782-20.69Z" style="fill:#7971ea;fill-opacity:.2" transform="translate(-287 -145.097)"/><path d="M1040.45 1104.78s.27 15.47-32.61 15.82c0 0-110.243.06-99.142 110.18 0 0 12.571 14.83 16.872 7.44 0 0-11.401-69.19 53.395-88.71l29.125-8.36 19.47-2.49 12.89-12s5.1-17.44 0-21.88ZM929.802 986.842s30.912 28.368 5.874 42.228c0 0-95.924 39.86-94.731 134.16 0 0 .915 12.27 14.335 18.44l4.697-29.77 12.693-35.35 19.938-27.14 26.385-22.06 23.135-14.84 18.352-13.02 6.397-19.22-5.622-16.81-14.537-11.347-16.916-5.271Zm-160.853 22.918s27.171 15.42 3.068 41.93c0 0-32.626 16.85-11.193 80.67 0 0 3.487 9.28 12.779 13.67l6.727-22.87-5.519-14.31-.525-24.59 12.22-20.75 9.836-15.72 2.544-15.02-4.795-12.74-13.29-10.33-11.852.06Zm613.241 230.53s14.36 59.38 101.24 44.64c0 0 31.31-17.89 50.14 3.56l-20.65 21.34-5.62-5.1-36.14 5.1-27.51-3.43-24.37-6.73-20.63-10.78-16.57-27.7.11-20.9Zm-18.81-113.37s83.86-27.09 125.81 54.75c0 0 13.69 23 1.06 56.55h-14.4s4.08-18.66 3.41-30.45c0 0-7.77-47.33-57.72-61.74 0 0-51.16-2.85-58.16-19.11Zm82.38-128.381s-2.02 35.471 66.3 65.911c0 0 55.88 21.04 46.26 124.36 0 0-13.91 7.1-18.08-42.78 0 0-10.79-52.39-75.15-88.29 0 0-49.42-15.36-19.33-59.201Zm175.13 11.161c1.38-.63-12.77 24.09 6.28 42.63 0 0 37.63 43.84 3.55 93.7 0 0-10.1-7.78-6.2-23.41 0 0 12.12-20.42-7.21-44.76 0 0-32.07-51.96 3.58-68.16ZM1645 163.642l38.28 95.422 34.67-10.055 4.44 12.863-46.83 16.04-42.12-107.272 11.56-6.998Zm202.03-6.635-77.59 117.046 28.57 23.671-6.61 11.514-41.93-31.326 87.19-128.157 10.37 7.252Zm93.75 131.637s-103.14 45.459-104.31 45.72c-1.18.261 10.56 35.586 10.56 35.586l-11.25 5.943-21.12-44.19 120.5-53.791 5.62 10.732Z" style="fill:#d5d3eb" transform="translate(-287 -145.097)"/><path d="M634.666 299.505c-.032.122.72-8.657.251-11.449-1.229-7.309-4.68-15.369-8.64-21.598-10.901-17.146-36.861-26.785-56.111-17.705-20.942 9.879.624 39.199 9.452 17.792 1.794-4.353 2.789-8.356 3.036-13.087.338-6.477-1.49-11.921-4.277-17.706-3.001-6.23-6.121-10.839-11.419-15.396-16.549-14.235-35.971-18.731-56.155-8.639-9.484 4.743-29.556 24.309-15.139 34.771 7.265 5.271 18.872-.912 24.763-5.731 13.876-11.354 21.867-29.944 11.503-45.933-21.578-33.292-58.236-37.241-92.036-21.297-13.521 6.378-30.842 16.073-31.776 32.675" style="fill:none;stroke:#222831;stroke-width:12.02px" transform="matrix(.7084 0 0 .67732 -29.241 -59.966)"/><path d="m.421-.167.091.011a.228.228 0 0 1-.08.124.24.24 0 0 1-.148.044.242.242 0 0 1-.181-.07.278.278 0 0 1-.066-.197c0-.087.022-.155.067-.203A.228.228 0 0 1 .279-.53a.22.22 0 0 1 .17.071.28.28 0 0 1 .066.199l-.001.023H.127c.004.057.02.101.049.131s.065.045.108.045c.032 0 .06-.008.083-.025a.172.172 0 0 0 .054-.081ZM.132-.309h.29a.177.177 0 0 0-.033-.098.136.136 0 0 0-.109-.051.139.139 0 0 0-.102.041.158.158 0 0 0-.046.108Z" style="fill-rule:nonzero" transform="translate(786.034 753.528) scale(117.47362)"/><path d="M.065 0v-.519h.079v.079A.216.216 0 0 1 .2-.513.102.102 0 0 1 .256-.53c.03 0 .06.009.091.028L.316-.42a.121.121 0 0 0-.064-.019.081.081 0 0 0-.052.017.094.094 0 0 0-.033.048.366.366 0 0 0-.014.103V0H.065Z" style="fill-rule:nonzero" transform="translate(851.366 753.528) scale(117.47362)"/><path d="M.065 0v-.519h.079v.079A.216.216 0 0 1 .2-.513.102.102 0 0 1 .256-.53c.03 0 .06.009.091.028L.316-.42a.121.121 0 0 0-.064-.019.081.081 0 0 0-.052.017.094.094 0 0 0-.033.048.366.366 0 0 0-.014.103V0H.065Z" style="fill-rule:nonzero" transform="translate(890.49 753.528) scale(117.47362)"/><path d="M.033-.259c0-.096.027-.167.08-.214A.244.244 0 0 1 .276-.53a.23.23 0 0 1 .175.07.267.267 0 0 1 .068.193c0 .067-.01.12-.03.158a.213.213 0 0 1-.087.089.26.26 0 0 1-.126.032.236.236 0 0 1-.176-.07.283.283 0 0 1-.067-.201Zm.091 0c0 .066.014.116.043.149a.138.138 0 0 0 .109.049c.044 0 .08-.016.109-.049.029-.034.044-.084.044-.152 0-.064-.015-.113-.044-.146a.139.139 0 0 0-.109-.05.139.139 0 0 0-.109.05c-.029.033-.043.082-.043.149Z" style="fill-rule:nonzero" transform="translate(929.612 753.528) scale(117.47362)"/><path d="M.065 0v-.519h.079v.079A.216.216 0 0 1 .2-.513.102.102 0 0 1 .256-.53c.03 0 .06.009.091.028L.316-.42a.121.121 0 0 0-.064-.019.081.081 0 0 0-.052.017.094.094 0 0 0-.033.048.366.366 0 0 0-.014.103V0H.065Z" style="fill-rule:nonzero" transform="translate(994.945 753.528) scale(117.47362)"/><path d="M1058 746h280v26h-280z" style="fill:#e0dfeb" transform="matrix(1.00357 0 0 1.03846 -291.779 -173.79)"/><path d="M690.205 1034.44V1112H712.8m0 0h0Zm63.846 0h20.507m95.572 0h32.853m114.492 0h325.54m114.49 0h31.85m96.57 0h19.51m63.85 0h10.39V992.62m0-95.796.83-53.51m-.83-418.282v-45.896H690.205v143.962m0 96.984v115.159" style="fill:none;stroke:#222831;stroke-width:8.32px" transform="matrix(1.00447 0 0 .99933 -294.72 -160.842)"/><path d="M1739.92 765.722C1707.06 790.878 1664.92 806 1619 806c-104.86 0-190-78.863-190-176s85.14-176 190-176 190 78.863 190 176c0 15.387-2.14 30.315-6.15 44.546L1857 817l-117.08-51.278Z" style="fill:none;stroke:#222831;stroke-width:7.08px" transform="translate(-501.18 -269.219) scale(1.17721)"/><path d="m454 1544 219-324s144.87-47.32 236 63l-182.42 331" style="fill:#7971ea;stroke:#222831;stroke-width:7.83px" transform="matrix(-1.06368 0 0 1.06368 2191.54 -203.85)"/><ellipse cx="586.5" cy="1583.5" rx="159.5" ry="52.5" style="fill:#a19bf1;stroke:#222831;stroke-width:9.62px" transform="matrix(-.9134 .22774 .18973 .76093 1800 140.125)"/><path d="M748 1177s-29.909-44.36 0-112c0 0 21.669-40.16 55-31 0 0 35.018 13-1 62 0 0-16 19-1 44m112-122s-85.565 40.57-118 142m118-142s36.055-16.53 55 6c0 0 24 30-12 50 0 0-77.364 32.05-83 120" style="fill:none;stroke:#222831;stroke-width:7.83px" transform="matrix(-1.06368 0 0 1.06368 2186.222 -234.86)"/><path d="M1005 1097s-81.41-7.6-130 80" style="fill:none;stroke:#222831;stroke-width:7.83px" transform="matrix(-1.06368 0 0 1.06368 2186.222 -234.86)"/><path d="M1005 1096.83s28.38-.3 37 15.17c0 0 20 39-20 44 0 0-105.16 6.72-83.537 90.17" style="fill:none;stroke:#222831;stroke-width:7.83px" transform="matrix(-1.06368 0 0 1.06368 2186.222 -234.86)"/><path d="M961 1220.09s11 17 65-5.09c0 0 28.4-9.95 37 16.09" style="fill:none;stroke:#222831;stroke-width:7.83px" transform="matrix(-1.06368 0 0 1.06368 2223.45 -209.264)"/><path d="M1033 1226s11.5 75.33-124 55m-164-152s-6.204 34.16-39 82" style="fill:none;stroke:#222831;stroke-width:7.83px" transform="matrix(-1.06368 0 0 1.06368 2191.54 -203.85)"/><g transform="translate(-77.264 -102.252) scale(.92466)"><path d="M1576 484h67v193h-67z" style="fill:#222831"/><circle cx="1609.5" cy="739.5" r="33.5" style="fill:#222831"/></g><path d="M479 522h422v103H479z" style="fill:none;stroke:#222831;stroke-width:8.49px" transform="matrix(1.03091 0 0 .92943 -287.292 -122.07)"/><circle cx="574" cy="541" r="37" style="fill:#222831" transform="translate(-7.949 90.987) scale(.59144)"/><circle cx="574" cy="541" r="37" style="fill:#222831" transform="translate(176.42 90.987) scale(.59144)"/><circle cx="574" cy="541" r="37" style="fill:#222831" transform="translate(504.753 171.123) scale(.59144)"/><circle cx="574" cy="541" r="37" style="fill:#222831" transform="translate(638.019 171.123) scale(.59144)"/><path d="M1101.13 148.813c12.44-9.441 27.95-15.046 44.75-15.046 16.81 0 32.31 5.605 44.75 15.046" style="fill:none;stroke:#222831;stroke-width:5.33px" transform="translate(-1000.726 315.055) scale(1.66823)"/><circle cx="574" cy="541" r="37" style="fill:#222831" transform="translate(84.235 90.987) scale(.59144)"/><path d="M655.435 625H901V522H479v103h176.435" style="fill:none;stroke:#222831;stroke-width:8.49px" transform="matrix(1.03091 0 0 .92943 747.193 250.217)"/><circle cx="574" cy="541" r="37" style="fill:#7971ea" transform="translate(1026.541 463.274) scale(.59144)"/><circle cx="574" cy="541" r="37" style="fill:#7971ea" transform="translate(1210.91 463.274) scale(.59144)"/><circle cx="574" cy="541" r="37" style="fill:#7971ea" transform="translate(1118.726 463.274) scale(.59144)"/><path d="M1023 533h367v367h-367z" style="fill:none;stroke:#222831;stroke-width:7.53px" transform="matrix(-.98108 0 0 -1.22019 2094.54 1459.133)"/><path d="m561 1341 6.299 30.36-.405-2.57m291.36 5.21h686.426m288.13-8.28 9.43-21.17" style="fill:none;stroke:#222831;stroke-width:7.84px" transform="matrix(1.06202 0 0 1.06368 -362.483 -202.786)"/><path d="M1067 637h272v174h-272z" style="fill:none;stroke:#222831;stroke-width:6.93px" transform="matrix(1.06368 0 0 1.32654 -368.731 -444.155)"/><path d="M1568 201h48v127h-48z" style="fill:none;stroke:#222831;stroke-width:8.36px" transform="matrix(1.0002 -.36197 .31494 .87024 -284.448 414.196)"/><path d="M1568 201h48v127h-48z" style="fill:none;stroke:#222831;stroke-width:7.9px" transform="matrix(.42075 .97692 -.96034 .4136 1182.02 -1484.046)"/><path d="M1568 201h48v127h-48z" style="fill:none;stroke:#222831;stroke-width:7.25px" transform="matrix(.87547 .60411 -.69875 1.01263 317.695 -1146.097)"/><path d="M1500 516s-41.79 223.344 166 264c0 0 112.89 11.556 172-50.663l133.89 108.318L1835 778s-108.9 75.184-186 39c0 0-73.81 17.869-159-112.518 0 0-56.33-93.13 10-188.482Z" style="fill:#7971ea;fill-opacity:.1" transform="translate(-287 -145.097)"/><path d="M494 581h432v22H494z" style="fill:#e0dfeb" transform="matrix(.98611 0 0 .54546 -276.139 125.994)"/><path d="M1533 959h426v14h-426z" style="fill:#e0dfeb" transform="matrix(1.00235 0 0 .85714 -291.599 -7.097)"/><path d="m547 1029 100-69s48.006 43.83 144 23c0 0 117.464-39.079 133-156 0 0 39.022 137.734-110 189 0 0-9.464 6.36-20 4-8.609-1.92-16.884-12.85-30-11.37-12.889 1.46-20.772 17.04-36 18.37-25.005 2.19-58.525-12.93-83-36l-98 38Z" style="fill:#e0dfeb" transform="translate(-287 -145.097)"/><path d="M1576.61 799.442C1491.04 778.599 1429 724.4 1429 630c0-97.137 85.14-176 190-176s190 78.863 190 176c0 15.387-2.14 30.315-6.15 44.546L1857 817l-117.08-51.278c-32.86 25.156-51.34 38.924-97.26 38.924-2.95 0 2.92.124 0 0" style="fill:none;stroke:#222831;stroke-width:9.14px" transform="matrix(-.9116 0 0 .9116 1944.24 148.131)"/><path d="m821 784 65 50-37 55.872L901 900l28-35.45L970 900l40-21-55-48 37-73-45.192-15L912 796l-44-39-47 27Z" style="fill:#7971ea" transform="translate(-513.391 -155.984) scale(1.06368)"/><path d="m454 1544 219-324s144.87-47.32 236 63l-182.42 331" style="fill:#7971ea;stroke:#222831;stroke-width:7.83px" transform="translate(-365.54 -203.85) scale(1.06368)"/><ellipse cx="586.5" cy="1583.5" rx="159.5" ry="52.5" style="fill:#a19bf1;stroke:#222831;stroke-width:9.62px" transform="matrix(.9134 .22774 -.18973 .76093 26 140.125)"/><path d="M748 1177s-29.909-44.36 0-112c0 0 21.669-40.16 55-31 0 0 35.018 13-1 62 0 0-16 19-1 44m112-122s-85.565 40.57-118 142m118-142s36.055-16.53 55 6c0 0 24 30-12 50 0 0-77.364 32.05-83 120" style="fill:none;stroke:#222831;stroke-width:7.83px" transform="translate(-360.222 -234.86) scale(1.06368)"/><path d="M1005 1097s-81.41-7.6-130 80" style="fill:none;stroke:#222831;stroke-width:7.83px" transform="translate(-360.222 -234.86) scale(1.06368)"/><path d="M1005 1096.83s28.38-.3 37 15.17c0 0 20 39-20 44 0 0-91.058 3.9-84.477 90.17" style="fill:none;stroke:#222831;stroke-width:7.83px" transform="translate(-360.222 -234.86) scale(1.06368)"/><path d="M961 1220.09s11 17 65-5.09c0 0 28.4-9.95 37 16.09" style="fill:none;stroke:#222831;stroke-width:7.83px" transform="translate(-397.45 -209.264) scale(1.06368)"/><path d="M1033 1226s11.5 75.33-124 55m-164-152s-6.204 34.16-39 82" style="fill:none;stroke:#222831;stroke-width:7.83px" transform="translate(-365.54 -203.85) scale(1.06368)"/><path d="m1019.71 1368.7 40.29-164.87h279l37.04 164.87h-356.33Z" style="fill:#e0dfeb" transform="matrix(1 0 0 .7503 -287 196.665)"/><path d="m690.205 1112-127.396 229.88 27.163.12m289.562 0 320.466 1.71m0 0 329.17.94m286.74.83 26.34.07L1702.27 1112" style="fill:none;stroke:#222831;stroke-width:7.83px" transform="translate(-365.54 -203.85) scale(1.06368)"/><path d="m1014 1341 34-153 265-1 36 155" style="fill:none;stroke:#222831;stroke-width:7.83px" transform="matrix(-1.06368 0 0 1.06368 2167.608 -203.85)"/><path d="M566.545 1343.55 1763.83 1240.7l31.31 46.56-1320.298 191.91 91.703-135.62Z" style="fill:#ebebeb;stroke:#222831;stroke-width:8.33px" transform="translate(-287 -145.097)"/><path d="m525.003 1404.98 1250.367-140.61" style="fill:none;stroke:#222831;stroke-width:8.33px" transform="translate(-287 -145.097)"/><path d="m599.593 1295.53 1333.187 194.49-100.97-147.35-1207.627-83.29-24.59 36.15Z" style="fill:#ebebeb;stroke:#222831;stroke-width:8.33px" transform="translate(-287 -145.097)"/><path d="M1873.32 1404.98 614.326 1275.62" style="fill:none;stroke:#222831;stroke-width:8.33px" transform="translate(-287 -145.097)"/></svg>