<svg xmlns="http://www.w3.org/2000/svg" id="Layer_2" viewBox="0 0 835.95 594.7"><defs><style>.cls-4{fill:none}.cls-7{fill:#dfdfeb}.cls-8,.cls-9{fill:#222831}.cls-10{fill:#7971ea}.cls-4,.cls-9{stroke-linecap:round;stroke-linejoin:round;stroke-width:2px;stroke:#222831}</style></defs><g id="DUO-Illustrations"><path d="m519.73 193.13 21.85-30.94-38.39-32.37-31.08 23.54 47.62 39.78Zm7.7-86.19 3.11 17.39 15.2-4.99 7.72-17.8-26.04 5.39Zm184.18 129.57 68.43-75.03 55.91 45.15-.16 101.94-109.07 8.25s4.95-54.03-15.12-80.3ZM368.25 351.67l32.5 28.96 42.82-7.76 5.1-52.77-49.56-17.15-30.86 48.72Zm-38.18-49.52 15.67-13.07 16.32 13.07-18.1 14.66-13.88-14.66Zm-204.03-32.58-60.3-45.26L0 275.09l7.35 66.7 46.37 48.05 60.84-9.21s-11.68-66.54 11.47-111.07Zm137-210.73 48.45-35.22 72.08 15.06-37.51 70.72-83.03-50.55Z" style="fill:#e0dfeb"/><path d="M655.45 136.58s5.18-1.47 7.54 1.19c0 0 4.73-22.63 5.08-33.89 0 0-.14-15.14-12.34-17.49 0 0-2.2-24.02-34.9-23.79 0 0-22.1-.33-35.54 14.6 0 0-14.91 13.01-11.1 25.66 0 0 5.77 20.87 33.69 18.46 0 0 15.39.33 28.23-8.64 0 0 11.07-7.44 12.94-10.79 0 0 8.76 9.1 6.79 30.3l-.4 4.41Z" class="cls-10"/><path d="M660.08 369.98s35.45 7.33 59.84 2.43l.39-8.95 7.64-1.05-2.64 16.17s-36.28 9.26-65.36-2.87l.13-5.73Z" style="fill:rgba(212,211,235,.5)"/><path d="m311.49 585.35-7.1 9.35 213.64-2.3-6.57-9.71-199.97 2.66Z" style="fill:#d4d3eb"/><path d="M227.97 330.87s2.22 94.34 36.67 147.02l17.36-1.05s-25.46-6.07-54.03-145.97Zm27.01 14.43s32.62 12.99 57.2-65.45l-7.78 35.57s-6.47 30.42-18.31 38.22c0 0-21.45 5.77-31.11-8.34Z" class="cls-7"/><path d="M183.58 247.22s51.1 20.23 83.83 56.43" class="cls-4"/><path d="M116.12 377.89s27.19 72.58 47.14 89.96c0 0-8.57 1.03-12.25-2.3 0 0-30.02-45.13-34.89-87.66ZM406.01 118.7s-4.35 10.59 2.13 25.36c0 0 5.07 14.27 3.62 22.14 0 0-.29 6.85 4.17 15.91 0 0-6.76-7.78-8.46-18.28 0 0-1.49-13.8-3.39-17.87 0 0-9.42-22.28 1.92-27.26Zm97.97 193.75s45.93 1.22 76.74-10.52c0 0-13.11 16.65-81.29 28.37l4.55-17.85Zm-15.61 19.21L511 266.33l-11.35-5.64 1.24-3.47 16.62 7.46-22.2 70.61-6.95-3.64Zm207.27 130.39s-.13 1.4-.31 3.28a32.38 32.38 0 0 1-6.81 16.98c-.89 1.12-1.51 1.91-1.51 1.91l13.52.39s3.74-13.77-.04-24.37l-4.84 1.81Z" class="cls-7"/><path d="M263.51 314.44s33.27-84.6 44.95-111.73" class="cls-4"/><path d="M327.61 215.14 299.7 331.08s-4.27 18.16-16.49 23.21c0 0-9.97 3.48-22.69-3.75l-37.69-22.77m7.19 4.57s7.09 87.42 49.96 143.65M164.33 247.22c.5.37-17.57-5.89-32.71 11.36 0 0-25.96 27.83-18.32 107.22 0 0 4.18 47.37 36.38 99.19 0 0 16.09 7.14 28.28-1.12 0 0-40.54-66.87-27.24-132.89m157.74-128.27s9.83-1.99 19.15 12.43m-19.15-12.43s3.56-15.51 4.13-28.1c0 0 .11-6.05-.77-10.5 0 0 6.56-4.79 6.21 18.84" class="cls-4"/><path d="M318.04 176.29s3.01-6.15 4.94-15.21c0 0 .67-5.18 3.4-5.88 0 0 5.46-1.74-1.21 21.43" class="cls-4"/><path d="M327.61 166.96s3.24-13.56 6.31-12.83c0 0 5.59-1.09-2.89 24.11" class="cls-4"/><path d="M332.88 172.42s2.29-9.38 6.39-8.7c0 0 4 1.92-4.27 19.5 0 0-4.28 12.1-7.39 31.93m109.58-48.38s11.93 26.87 60.63 97.53" class="cls-4"/><path d="M437.5 167.37s-3.08-3.35 7.63-16.43c0 0 4.72-5.08.19-9.74 0 0-8.94-7.47-14.81 11.53m-18.75 24 67.45 144.49" class="cls-4"/><path d="M434.68 143.29s-3.72-4.55-.26-14.85c0 0 3.54-6.98 3.16-12.09a4.034 4.034 0 0 0-6.95-2.5c-.51.55-1.01 1.18-1.46 1.92-3.86 6.31-6.29 14.05-5.86 28.29m77.48 113.17-22.71 68.38 17.14 9.7 22.3-71-16.72-7.07Zm15.69 15.46s26.52-30.26 78.61-46.13c9.03-2.78 18.8-1.79 27.1 2.74 3.33 1.84 7.27 3.28 11.38 3.25 5.73-.04 12.6-4.09 18.24-8.1a25.153 25.153 0 0 1 15.86-4.59c10.66.58 27.98 3.32 41.45 14.1" class="cls-4"/><path d="M616.59 192.67s1.75 17.99-4.51 32.83M498.19 330.86s41.49-3.57 83.03-28.62" class="cls-4"/><path d="M564.86 311.33s19.89 72.31-7.81 144.22a8.921 8.921 0 0 0 2.63 10.1c9.43 7.68 34.55 20.55 89.44 7.44m-87.23-5.33s-1.7 7.24-7.41 15.09m164.75-119.89c-.89.84 19.58-58.42 1.67-108.88 0 0-2.92-9.83-9.68-17.91a20.473 20.473 0 0 0-17.79-7.19 20.43 20.43 0 0 0-15.92 10.7c-4.7 8.81-8.12 23.44-7.22 47.69 0 0 .94 51.69.55 73.54" class="cls-4"/><path d="M727.95 362c-1.44 14.38-3.11 17.03-3.11 17.03-51.98 6.68-65.8-3.77-65.8-3.77 1.59-8.12 2.4-14.35 2.4-14.35s39.25 5.62 66.52 1.08Z" class="cls-4"/><path d="M704.33 382.3s-23.97 99.26-37.68 121.95c0 0 4.21 7.37-3.88 27.42 0 0 9.43 2.38 11.68-32.08l12.57-31.58 9.87-22.54 8.64-27.06 8.68-37.02-9.87.91Z" class="cls-7"/><path d="M655.58 158.56s3.45 37.51-.23 63.57m-75.41-109.3s-23.61 61.35 12.35 77.56c0 0 27.18 10.92 51.42-15.1" class="cls-4"/><path d="M649.06 155.96s11.39 8.5 16.38-7.97c.14-.44.23-.9.27-1.36.22-3.19 0-13.75-14.61-9.08" class="cls-4"/><path d="M659.08 143.15s-4.97-1.42-6.57 5.57" class="cls-4"/><path d="M655.58 144.7s2.71 1.78 1.83 6.28m10.34 227.78s1.07 54.26-22.96 105.15m-2.38 13.25c-4.13 8.49-9.52 15.53-14.95 22.73h0a4.98 4.98 0 0 0-.68 6.21 4.964 4.964 0 0 0 5.92 1.97c4.6-1.85 11.41-6.29 16.94-16.97 0 0-2.42 9.64-8.36 18.25 0 0-2.45 3.92 2.35 6.13 1.59.73 3.44.62 4.93-.29 2.95-1.79 7.94-6.34 11.39-17.5 0 0 1.78.53-.29 9.91 0 0-1.18 3.34 2.84 4.57 1.57.48 3.27-.08 4.25-1.4 1.97-2.7 5.08-9.18 6.71-24.05.28-2.55.52-5.34.7-8.41m0 .01c7.08-17.08 29.82-62.93 39.75-117.35" class="cls-4"/><path d="M644.69 484.03s-8.91 9.8-17.59 9.78c-.49 0-.97.07-1.43.22-.84.3-2.18.87-3.36 1.88a4.358 4.358 0 0 0-1.35 4.53 4.335 4.335 0 0 0 3.57 3.09c4.89.66 12.61.57 17.32-5.21m-218.6-354.26s-3.28-13.85 1.18-28.24c.06-.19.1-.38.14-.58.21-1.61.4-6.78-6.6-5.68h-.03c-.49.04-6.4.97-6.18 24.15" class="cls-4"/><path d="M403.87 146.69c-6.28-17.39-2.6-24.73-.16-27.42.57-.63 1.39-.97 2.23-.95.85.02 1.65.41 2.19 1.06 2.47 2.99 2.87 9.56 2.87 9.56s-.14 3.35 3.78 14.44" class="cls-4"/><path d="M411.76 176.73s-4.21-7.83-6.19-21.12v-.09c-.1-.68-.74-5.12-1.7-8.84m251.51-10.3s4.1-19.99-6.32-35.17m13.62 35.97s17.28-57.37-13.62-50.44" class="cls-4"/><path d="M656.18 86.15s-1.98-21.83-34.92-23.89c-.88-.05-1.76-.04-2.64.03-6.46.7-34.71 5.07-43.87 29.75 0 0-7.88 25.59 28.31 29.5 0 0 33.79 1.53 49.57-25.67" class="cls-4"/><ellipse cx="590.95" cy="140.16" class="cls-8" rx="1.81" ry="3.78"/><ellipse cx="608.02" cy="140.16" class="cls-8" rx="1.81" ry="3.78"/><path d="m597.58 145.49-2.22 11.17s-1.99 4.48 7.96 3.08" class="cls-4"/><path d="m431.94 445.77 5.04-5.42" style="fill:none"/><path d="m362.47 458.03 48.59 38.57 52.86-61.61-20.28-25.73-43.74 51.22-20.04-22.65-17.39 20.19Z" class="cls-8"/><path d="M587.62 163.7s2.6 10.91 35.42-1.66m-33.33 4.42v9.93m0 0s2.59 6.4 18.31 4.58c0 0 3.57-.27 8.48-2.75 1.97-.98 3.3-2.89 3.55-5.07.46-3.89 1.13-9.89 1.13-9.89" class="cls-4"/><path d="M617.14 200.79s17.55-1.23 26.61-25.31c0 0-9.1 10.94-26.95 16.65 0 0 1.99 1.07.34 8.66Z" class="cls-9"/><path d="M709.62 401.45c.09.99-3.38 26.73 3.14 41.57 2.25 5.09 0 11.06-5.06 13.39-5.16 2.42-11.67 5.08-18.34 6.93" class="cls-4"/><path d="M700.17 459.61s4.64 8.8 0 25.58" class="cls-4"/><path d="m250.94 139.37-.6-12.02-3.64-12.9-4.48-8.68s-10.55-25.32-47.61-21.14c0 0-29.48-1.35-48.07 30.35 0 0-5.27 6.39-5.89 28.44l-2.42 10.68-1.41 10.17-2.34 9.49-1.93 9.63-4.18 12.42-3.11 9.33-2.47 6.62 1.93 5.71 9.56 6.25 10.65 2.89 10-.11 6.63-.28s.52-27.94 1.7-52.24c0 0-10.38-2.66-5.62-12.42 0 0 2.11-6.88 8.35-6.07 0 0-3.05-16.95 10.06-29.53 0 0-4.82 12.81.14 29.8 0 0 19.28 8.53 40.41 4.3 0 0 19.54-4.05 31.49-17.72l2.84-2.98Z" class="cls-10"/><path d="M177.96 194.75s-2.43 22.38.96 30.08c0 0 13.54 3.28 28.83 1.8 0 0 13.99-2.28 17.62-10.88l-.21-8.18s-35.23-3.33-47.2-12.81Z" class="cls-10"/><path d="M172.16 189.66s12.93 15.53 52.54 16.89c0 0 22.16.05 21.58-18.3l-.76-42.91" class="cls-4"/><path d="M176.85 193.88s-.97 46.54 11.73 62.86" class="cls-4"/><path d="M188.57 256.74s4.41 5.75-5.04 7.94c-1.84.44-3.77.36-5.57-.24-3.57-1.2-9.69-4.02-11.44-9.58 0 0-8.02-10.67-2.96-80.88" class="cls-4"/><path d="M175.71 125.86s-3.95 16.63 0 30.02c0 0 43.88 20.03 75.26-16.89 0 0 1.63-51.84-44.57-55.35 0 0-45.39-3.32-61.8 34.37-1.8 4.11-2.94 8.48-3.35 12.95-1.33 13.12-6.09 51.37-18.82 79.8 0 0-4.15 9.06 18.3 15.01 0 0 11.9 2.41 21.09 0" class="cls-4"/><path d="M175.71 125.86s-8.92 6.77-10.12 25.8m4.91 6.17s-5.87-5.91-11.14.26c-.56.65-1.03 1.38-1.38 2.17-1.16 2.74-4.05 11.48 5.16 13.48 0 0 3.2.74 6.84-.3" class="cls-4"/><path d="M162.24 166.82s-.04-5.4 5.47-5.88" class="cls-4"/><path d="M163.84 163.15s1.17-.54 3.28 2.83m12.07 59.33s26.12 4.38 39.87-2.81c0 0 7.57-4.62 6.57-9.85 0 0-1.41-3.68-.47-6.1" class="cls-4"/><ellipse cx="219.62" cy="169.91" class="cls-8" rx="1.73" ry="3.46" transform="rotate(-6.03 219.517 169.869)"/><path d="M233.2 164.71c.88-.09 1.74 1.2 1.92 2.88.18 1.69-.39 3.13-1.27 3.22-.88.09-1.74-1.2-1.92-2.88-.18-1.69.39-3.13 1.27-3.22Z" class="cls-8"/><path d="M228.99 175.65s1.52 4.12 1.94 5.27c.12.32.18.66.18 1.01-.01 1.11-.45 3.06-3.65 2.22m-6.17 7.92s8.21 3.23 14.12-2.43" class="cls-4"/><path d="M172.16 189.76s.34 5.25 4.67 10.27l.14-5.7-4.82-4.57Z" class="cls-9"/><path d="M41.33 477.57s275.71-1.02 278.07-.94m361.73 7.88 123.38 3.64m-160.65-3.64-140.73-.95m-193.85-81.63 17.67 122.06 171.68-.91 10.25-123.79-199.59 2.63Zm17.97 122.06-22.29 53.29L516.88 575l-18.1-51.01m-193.82 53.3 5.75 7.69 200.64-2.34 5.54-7.41" class="cls-4"/><path d="m316.92 408.29 15.96 108.1 159.91-.43 10.34-110.26-186.21 2.59Zm71.39 166.94 3.83-16.76 38.81-.26 7.04 17.01" class="cls-4"/><path d="m364.22 469.2 46.63 36.87 51.31-57.95-19.33-26.45-43.97 53.59-20.26-23.96-14.38 17.9ZM151 465.55s.24.86 2.83 4.46c1.25 1.73 5.68 6.05 7.41 6.91m21.1-5.41s-1.38 3.5 1.05 5.12m-5.43-12.76s7.91 1 10.28 4.84c.13.22.28.43.45.62.91 1.03 3.97 4.44 3.97 4.44s-6.33 1.94-10.32-2.39" class="cls-4"/><path d="m394.7 575 1.51-10.91 30.72-.13 2.13 10.67-34.36.36Z" class="cls-7"/><circle cx="323.31" cy="27.35" r="26.35" style="stroke:#000;stroke-linecap:round;stroke-linejoin:round;stroke-width:2px;fill:none" transform="rotate(-76.72 323.296 27.353)"/><path d="M747.31 190.23c1.58-3.81 11.08-3.95 13.18 1.22 1.97 4.84-2.78 5.25-3 6.73-.07.44.81-.11 1.2-.05.89.13 2.34.03 3.12.46 2.22 1.23 4.22 4.09 4.96 6.79.49 1.78-.2 3.51-1.14 4.98-.35.55-1.62 1.55-1.04 1.64 3.54.53 7.05.68 8.96 5.37.84 2.07-.76 9.53-3.55 9.11M428.94 358.11l10.62-15.92 9.49 15.35-20.11.57Z" style="stroke:#ebebeb;stroke-linecap:round;stroke-linejoin:round;stroke-width:2px;fill:none"/><circle cx="815.4" cy="301.34" r="15.48" class="cls-4"/><path d="m19.525 358.755 24.515-13.673 13.673 24.515-24.515 13.672zm691.089-225.106L722.43 95.57l38.079 11.816-11.816 38.08z" class="cls-4"/></g></svg>